<svg version="1.2" baseProfile="tiny-ps" xmlns="http://www.w3.org/2000/svg" viewBox="0 0 512 512" width="512" height="512">
	<title>028-ecology-1-svg</title>
	<style>
		tspan { white-space:pre }
		.shp0 { fill: #ffffff } 
	</style>
	<g id="Layer">
		<path id="Layer" class="shp0" d="M399.3 305.48C391.09 304.37 383.54 310.14 382.45 318.36C380.67 331.57 373.12 344.96 360 358.15C325.95 392.37 270.38 399.75 243.99 401.27C245.46 374.79 252.7 318.87 286.95 284.44C306.57 264.71 322.66 262.43 333.05 262.43C341.66 262.43 349.35 263.44 355.82 265.39C355.47 265.89 355.12 266.39 354.77 266.89C331.48 299.36 308.27 318.06 308.04 318.25C301.56 323.4 300.48 332.83 305.64 339.31C308.6 343.04 312.97 344.98 317.39 344.98C320.66 344.98 323.95 343.92 326.71 341.73C327.77 340.89 352.88 320.77 378.55 285.19C412.7 237.88 431.7 185.27 433.49 133.07C433.7 126.94 430.25 121.22 424.63 118.75C419.03 116.28 412.59 117.38 408.21 121.64C406.65 123.05 382.83 143.99 336.07 145.77C327.79 146.09 321.34 153.05 321.65 161.33C321.96 169.61 328.88 176.05 337.21 175.75C364.21 174.72 385.35 168.19 400.49 161.26C395.27 191.45 384.22 217.91 372.22 239.42C361.16 234.78 348.04 232.43 333.05 232.43C308.37 232.43 286.33 242.53 265.68 263.29C213.57 315.68 213.41 403.48 213.66 415.84C213.66 415.95 213.65 416.06 213.65 416.18C213.41 424.41 219.85 431.3 228.09 431.6C228.52 431.62 230.07 431.67 232.54 431.67C252.42 431.67 332.36 428.48 381.27 379.31C399.11 361.37 409.51 342.2 412.18 322.35C413.28 314.14 407.52 306.59 399.3 305.48L399.3 305.48Z" />
		<path id="Layer" fill-rule="evenodd" class="shp0" d="M175.79 334.94C184.09 334.64 191.04 341.08 191.35 349.36C191.66 357.64 185.21 364.61 176.93 364.92C130.18 366.7 106.36 387.62 104.8 389.04C101.96 391.8 98.26 393.24 94.48 393.24C92.43 393.24 90.34 392.81 88.37 391.94C82.76 389.47 79.3 383.75 79.51 377.62C80.97 334.96 93.85 292.12 117.02 252.19C116.63 250.99 116.39 249.76 116.31 248.52C115.89 247.71 115.38 246.75 114.93 245.91C110.05 236.82 100.96 219.89 100.82 198.41C100.68 174.7 111.31 151.92 132.42 130.7C187.41 75.41 281.62 78.25 285.61 78.4C293.84 78.71 300.28 85.59 300.04 93.83C300.04 93.94 300.04 94.05 300.03 94.17C300.28 106.52 300.12 194.32 248.01 246.71C227.36 267.48 205.32 277.57 180.63 277.57C162.73 277.57 149.95 274.18 141.14 270.45C129.01 292.05 117.77 318.79 112.5 349.44C127.64 342.5 148.78 335.96 175.79 334.94ZM153.69 151.85C138.42 167.2 130.73 182.8 130.83 198.22C130.89 207.43 133.61 215.62 136.64 222.36C161.25 189.12 184.6 170.45 185.61 169.64C192.11 164.49 201.54 165.59 206.69 172.07C211.83 178.56 210.75 187.98 204.27 193.14C204.04 193.32 181.01 211.85 157.89 244.14C157.8 244.27 157.71 244.4 157.62 244.53C163.15 246.23 170.63 247.57 180.63 247.57C191.03 247.57 207.12 245.29 226.74 225.56C260.85 191.27 268.16 135.26 269.67 108.73C243.27 110.26 187.72 117.64 153.69 151.85Z" />
	</g>
</svg>