<svg width="236" height="69" viewBox="0 0 236 69" fill="none" xmlns="http://www.w3.org/2000/svg">
<path d="M54.7263 27.5937C54.7263 12.354 42.923 0 28.3636 0C13.8041 0 2.00002 12.354 2.00002 27.5937C1.99151 34.669 4.58932 41.4755 9.25323 46.5974H9.23666L28.3636 67.1L47.4896 47.0714L49.0406 45.4477C53.4342 40.1052 54.7263 34.9612 54.7263 27.5937Z" fill="url(#paint0_linear)" fill-opacity="0.5"/>
<g filter="url(#filter0_d)">
<path d="M49.2928 27.8425C49.2928 16.1535 39.9226 6.67773 28.3646 6.67773C16.8064 6.67773 7.43556 16.1535 7.43556 27.8425C7.4288 33.2695 9.4912 38.4903 13.1936 42.4188H13.1805L28.3646 58.1445L43.5478 42.7823L44.7792 41.5371C48.2672 37.4391 49.2928 33.4936 49.2928 27.8425Z" fill="url(#paint1_linear)"/>
</g>
<path d="M28.3437 15.5264L15.8757 17.6121C14.3795 39.0115 23.5644 44.8449 28.3437 45.0867C40.5268 43.1281 41.732 25.9541 40.8117 17.6121L28.3437 15.5264Z" stroke="#0A7DCD" stroke-width="2.45174"/>
<path d="M28.3652 43.8478V16.5464C30.6439 16.7119 36.8629 18.0276 39.7579 18.532C40.5714 38.5531 32.9222 43.0206 28.3652 43.8478Z" fill="url(#paint2_linear)" fill-opacity="0.15"/>
<path d="M26.8668 35.4743L28.3836 32.8035H23.4766C24.2197 34.1102 25.4367 35.0689 26.8668 35.4743ZM22.8974 31.3637H25.9309L23.4766 27.0438C22.9785 27.919 22.7172 28.9127 22.7189 29.924C22.7189 30.4206 22.7813 30.903 22.8974 31.3637ZM24.4148 25.8147L25.9302 28.4842L28.3836 24.1649C26.8987 24.1629 25.4729 24.7556 24.4148 25.8147ZM29.9003 24.3736L28.3836 27.0444H33.2908C32.5475 25.7377 31.3305 24.7788 29.9003 24.3736ZM33.87 28.4842H30.8365L33.2899 32.8042C33.7882 31.9289 34.0498 30.9352 34.0483 29.924C34.0483 29.4271 33.9861 28.9449 33.87 28.4842ZM32.3524 34.033L30.8372 31.3637L28.3836 35.6831C29.8685 35.6851 31.2945 35.0922 32.3524 34.033ZM28.3836 37.1228C24.4728 37.1228 21.3027 33.8999 21.3027 29.924C21.3027 25.948 24.4728 22.7251 28.3836 22.7251C32.2944 22.7251 35.4644 25.948 35.4644 29.924C35.4644 33.8999 32.2944 37.1228 28.3836 37.1228ZM29.2015 28.4842H27.5659L26.7486 29.924L27.5659 31.3637H29.2015L30.0186 29.924L29.2015 28.4842Z" fill="url(#paint3_linear)"/>
<path d="M76.4392 24.8124H91.2232V21.3773H76.4392C73.4303 21.3773 71 23.7132 71 26.5984V35.4184C71 38.3037 73.4303 40.6395 76.4392 40.6395H91.2232V37.2045H76.4392C75.4266 37.2045 74.5875 36.4078 74.5875 35.4184V31.7915H87.6068V28.3568H74.5875V26.5984C74.5875 25.609 75.4266 24.8124 76.4392 24.8124ZM107.853 33.2754V29.8407H94.1397V33.2754H107.853ZM126.781 24.8124C126.144 23.6034 125.132 22.614 123.83 22.0369C122.991 21.625 122.007 21.405 120.995 21.405H110.753V24.8124H121.371C122.644 24.9771 123.656 25.9665 123.83 27.1755V40.6119H127.446V27.5325C127.446 26.5435 127.215 25.6367 126.781 24.8124ZM133.92 40.6119V21.405H130.333V40.6119H133.92ZM153.438 24.043L146.957 28.7964L140.447 24.043L136.831 21.3773V40.6395H140.447V28.3845L143.977 30.9672L146.957 33.1379L149.908 30.9672L153.438 28.3845V40.6395H157.083V21.3773L153.438 24.043ZM177.619 37.1772L169.142 21.3773L160.665 37.1772L158.842 40.6395H162.893L164.744 37.1772L169.142 28.9615L173.568 37.1772L175.42 40.6395H179.47L177.619 37.1772ZM191.363 21.3501L185.807 28.2194L180.223 21.3501H175.681L183.522 30.9948V31.022L184.014 31.5991V40.6119H187.63V31.5442L188.064 31.022V30.9948L195.905 21.3773V21.3501H191.363ZM175.681 40.6668L175.711 40.6119H175.681V40.6668ZM195.905 40.6395V40.6119H195.876L195.905 40.6395ZM210.873 37.1772L202.396 21.3773L193.919 37.1772L192.096 40.6395H196.147L197.999 37.1772L202.396 28.9615L206.823 37.1772L208.675 40.6395H212.725L210.873 37.1772ZM208.764 21.405V24.8396H217.068V40.6395H220.684V24.8396H228.988V21.405H208.764ZM235.492 40.6119V21.405H231.904V40.6119H235.492Z" fill="#0A7DCD"/>
<defs>
<filter id="filter0_d" x="0.653676" y="3.23692" width="55.421" height="65.0305" filterUnits="userSpaceOnUse" color-interpolation-filters="sRGB">
<feFlood flood-opacity="0" result="BackgroundImageFix"/>
<feColorMatrix in="SourceAlpha" type="matrix" values="0 0 0 0 0 0 0 0 0 0 0 0 0 0 0 0 0 0 127 0" result="hardAlpha"/>
<feOffset dy="3.34106"/>
<feGaussianBlur stdDeviation="3.39094"/>
<feColorMatrix type="matrix" values="0 0 0 0 0.0901961 0 0 0 0 0.627451 0 0 0 0 1 0 0 0 0.1 0"/>
<feBlend mode="normal" in2="BackgroundImageFix" result="effect1_dropShadow"/>
<feBlend mode="normal" in="SourceGraphic" in2="effect1_dropShadow" result="shape"/>
</filter>
<linearGradient id="paint0_linear" x1="28.3631" y1="0" x2="28.3631" y2="67.1" gradientUnits="userSpaceOnUse">
<stop stop-color="#0A7DCD"/>
<stop offset="0.9998" stop-color="#0999FD" stop-opacity="0.55"/>
<stop offset="0.9999" stop-color="#0999FD"/>
<stop offset="1" stop-color="#0A7DCD"/>
</linearGradient>
<linearGradient id="paint1_linear" x1="28.3642" y1="6.67773" x2="28.3642" y2="58.1445" gradientUnits="userSpaceOnUse">
<stop stop-color="white"/>
<stop offset="1" stop-color="white" stop-opacity="0.74"/>
</linearGradient>
<linearGradient id="paint2_linear" x1="34.3382" y1="16.9343" x2="34.3382" y2="44.5451" gradientUnits="userSpaceOnUse">
<stop offset="0.0001" stop-color="#0A7DCD"/>
<stop offset="1" stop-color="#0A7DCD" stop-opacity="0"/>
</linearGradient>
<linearGradient id="paint3_linear" x1="28.3836" y1="22.7251" x2="28.3836" y2="37.1228" gradientUnits="userSpaceOnUse">
<stop stop-color="#0A7DCD"/>
<stop offset="1" stop-color="#0A7DCD"/>
</linearGradient>
</defs>
</svg>
