<svg version="1.2" baseProfile="tiny-ps" xmlns="http://www.w3.org/2000/svg" viewBox="0 0 512 512" width="512" height="512">
	<title>046-atmosphere-svg</title>
	<style>
		tspan { white-space:pre }
		.shp0 { fill: #ffffff } 
	</style>
	<g id="Layer">
		<path id="Layer" class="shp0" d="M416.8 172.99L416.8 162.18C416.8 103.63 369.17 56 310.62 56C285.13 56 260.47 65.17 241.21 81.83C228.27 93.02 218.3 107.07 212.04 122.7C202.24 117.56 191.25 114.79 179.96 114.79C141.87 114.79 110.87 145.79 110.87 183.88L110.87 198.68C79.54 205.45 56 233.15 56 266.19C56 284.65 62.98 301.96 75.67 314.93C88.51 328.05 105.78 335.28 124.3 335.28C132.59 335.28 139.3 328.56 139.3 320.28C139.3 312 132.59 305.28 124.3 305.28C102.82 305.28 86 288.11 86 266.19C86 244.64 103.83 227.1 125.75 227.1L125.87 227.1C134.16 227.1 140.87 220.39 140.87 212.1L140.87 183.88C140.87 162.33 158.41 144.79 179.96 144.79C191.16 144.79 201.84 149.62 209.27 158.04C213.12 162.4 219.14 164.14 224.73 162.5C230.32 160.87 234.45 156.16 235.34 150.41C241.03 113.69 273.39 86 310.62 86C352.63 86 386.8 120.18 386.8 162.18L386.8 181.47C386.8 187.02 389.87 192.11 394.77 194.72C414.04 204.94 426 224.82 426 246.59C426 272.13 409.7 294.57 385.43 302.44C377.54 304.99 373.23 313.45 375.78 321.33C378.33 329.21 386.79 333.53 394.67 330.98C431.36 319.09 456 285.18 456 246.59C456 216.81 441.19 189.38 416.8 172.99L416.8 172.99Z" />
		<path id="Layer" class="shp0" d="M193.39 327.34C193.39 292.97 220.88 264.93 255.02 263.99L240.69 278.32C234.83 284.18 234.83 293.67 240.69 299.53C243.62 302.46 247.46 303.93 251.3 303.93C255.14 303.93 258.98 302.46 261.9 299.53L298.75 262.69C304.61 256.83 304.61 247.33 298.75 241.47L261.9 204.63C256.05 198.77 246.55 198.77 240.69 204.63C234.83 210.49 234.83 219.98 240.69 225.84L249.11 234.26C201.19 238.18 163.39 278.42 163.39 327.34C163.39 339.32 165.7 351 170.25 362.05C172.63 367.84 178.23 371.34 184.12 371.34C186.02 371.34 187.96 370.98 189.83 370.21C197.49 367.05 201.14 358.29 197.99 350.63C194.9 343.12 193.39 335.5 193.39 327.34L193.39 327.34Z" />
		<path id="Layer" fill-rule="evenodd" class="shp0" d="M323.2 281.35C330.85 278.16 339.63 281.78 342.82 289.43C347.63 300.98 350.17 314.09 350.17 327.34C350.17 378.52 308.78 420.21 257.71 420.71L267.39 430.39C273.25 436.25 273.25 445.75 267.39 451.61C264.46 454.54 260.62 456 256.79 456C252.95 456 249.11 454.54 246.18 451.61L209.34 414.76C206.52 411.95 204.94 408.14 204.94 404.16C204.94 400.18 206.52 396.36 209.34 393.55L246.18 356.71C252.04 350.85 261.54 350.85 267.39 356.71C273.25 362.57 273.25 372.06 267.39 377.92L254.37 390.94C255.16 390.81 255.96 390.73 256.79 390.73C291.74 390.73 320.18 362.29 320.18 327.34C320.18 318.01 318.43 308.89 315.13 300.96C311.94 293.32 315.56 284.54 323.2 281.35ZM241.83 404.83C241.86 404.32 241.91 403.81 242 403.32L241.15 404.16L241.83 404.83Z" />
	</g>
</svg>