<svg version="1.2" baseProfile="tiny-ps" xmlns="http://www.w3.org/2000/svg" viewBox="0 0 512 512" width="512" height="512">
	<title>012-industry-svg</title>
	<style>
		tspan { white-space:pre }
		.shp0 { fill: #ffffff } 
	</style>
	<g id="Layer">
		<path id="Layer" fill-rule="evenodd" class="shp0" d="M421.42 398.88C422.72 403.4 421.81 408.27 418.98 412.03C416.14 415.79 411.71 418 407 418L102 418C97.32 418 92.9 415.81 90.07 412.09C87.23 408.36 86.29 403.52 87.54 399.01L129.65 246.53L129.65 182C129.65 173.72 136.36 167 144.65 167L272.59 167C280.88 167 287.59 173.72 287.59 182L287.59 218.7L372.11 218.7C380.39 218.7 387.11 225.41 387.11 233.7L387.11 278.91L399.24 321.33C401.52 329.3 396.91 337.6 388.94 339.88C387.56 340.27 386.18 340.46 384.81 340.46C378.29 340.46 372.28 336.17 370.39 329.58L357.68 285.14C357.3 283.8 357.11 282.41 357.11 281.02L357.11 248.7L288.36 248.7L296.11 276.86L320.41 276.86C328.7 276.86 335.41 283.57 335.41 291.86C335.41 300.14 328.7 306.86 320.41 306.86L304.36 306.86L326.67 388L387.11 388L386.66 386.45C384.38 378.48 388.99 370.18 396.96 367.9C404.93 365.62 413.23 370.23 415.51 378.2L421.42 398.88ZM295.56 388L258.13 251.89C257.77 250.6 257.59 249.26 257.59 247.91L257.59 197L159.65 197L159.65 244.55L220.9 244.55C229.18 244.55 235.9 251.26 235.9 259.55C235.9 267.83 229.18 274.55 220.9 274.55L153.04 274.55L121.7 388L295.56 388Z" />
		<path id="Layer" class="shp0" d="M207.32 151.2C207.41 151.2 207.5 151.2 207.58 151.2C215.87 151.05 222.47 144.23 222.33 135.95C222.32 135.85 222.55 125.75 228.86 119.34C232.99 115.13 239.45 113 248.1 113L248.18 113C257.17 113 269.69 118.98 282.94 125.31C302.79 134.8 327.51 146.6 356.53 146.6L357.01 146.6C384.98 146.6 408.78 130.87 420.67 104.53C424.08 96.98 420.72 88.09 413.17 84.68C405.62 81.28 396.73 84.64 393.33 92.19C383.38 114.22 364.61 116.6 357.01 116.6L356.53 116.6C334.3 116.6 314.77 107.27 295.87 98.24C279.46 90.4 263.96 83 248.25 83C248.18 83 248.11 83 248.04 83C231.1 83 217.45 88.15 207.46 98.31C192.39 113.64 192.29 134.16 192.33 136.45C192.47 144.65 199.16 151.2 207.32 151.2L207.32 151.2Z" />
		<path id="Layer" class="shp0" d="M416.74 161.55C410.44 156.17 400.97 156.92 395.59 163.21C388.51 171.51 383 170.88 367.8 166.76C353.96 163.01 333.03 157.35 317.03 177.71C311.91 184.22 313.04 193.65 319.56 198.77C322.3 200.93 325.57 201.98 328.82 201.98C333.26 201.98 337.66 200.01 340.62 196.24C343.69 192.33 345.7 191.86 359.96 195.72C375.27 199.86 398.4 206.13 418.41 182.7C423.79 176.4 423.04 166.93 416.74 161.55L416.74 161.55Z" />
		<path id="Layer" class="shp0" d="M160.72 151.13C161 151.13 161.28 151.12 161.56 151.1C169.83 150.64 176.16 143.57 175.71 135.29C175.7 135.13 175.21 118.55 184.15 107.37C189.32 100.9 188.27 91.46 181.8 86.29C175.34 81.11 165.9 82.16 160.72 88.63C144.68 108.68 145.6 134.12 145.75 136.96C146.2 144.95 152.81 151.13 160.72 151.13Z" />
	</g>
</svg>