<svg width="50" height="50" viewBox="0 0 50 50" fill="none" xmlns="http://www.w3.org/2000/svg">
<path d="M25 43.5413L35.3125 33.2288C37.3519 31.1893 38.7407 28.5908 39.3032 25.7619C39.8658 22.9331 39.5769 20.0009 38.4731 17.3363C37.3693 14.6716 35.5001 12.3941 33.1019 10.7917C30.7037 9.18932 27.8843 8.33406 25 8.33406C22.1158 8.33406 19.2963 9.18932 16.8981 10.7917C14.4999 12.3941 12.6307 14.6716 11.5269 17.3363C10.4231 20.0009 10.1342 22.9331 10.6968 25.7619C11.2594 28.5908 12.6481 31.1893 14.6875 33.2288L25 43.5413ZM25 49.433L11.7417 36.1747C9.11946 33.5524 7.33372 30.2115 6.61027 26.5744C5.88681 22.9372 6.25814 19.1672 7.67729 15.7411C9.09644 12.315 11.4997 9.3867 14.5831 7.32643C17.6665 5.26617 21.2916 4.1665 25 4.1665C28.7084 4.1665 32.3335 5.26617 35.4169 7.32643C38.5003 9.3867 40.9036 12.315 42.3227 15.7411C43.7419 19.1672 44.1132 22.9372 43.3897 26.5744C42.6663 30.2115 40.8806 33.5524 38.2583 36.1747L25 49.433ZM25 27.083C26.1051 27.083 27.1649 26.644 27.9463 25.8626C28.7277 25.0812 29.1667 24.0214 29.1667 22.9163C29.1667 21.8113 28.7277 20.7515 27.9463 19.9701C27.1649 19.1887 26.1051 18.7497 25 18.7497C23.8949 18.7497 22.8351 19.1887 22.0537 19.9701C21.2723 20.7515 20.8333 21.8113 20.8333 22.9163C20.8333 24.0214 21.2723 25.0812 22.0537 25.8626C22.8351 26.644 23.8949 27.083 25 27.083ZM25 31.2497C22.7899 31.2497 20.6703 30.3717 19.1075 28.8089C17.5446 27.2461 16.6667 25.1265 16.6667 22.9163C16.6667 20.7062 17.5446 18.5866 19.1075 17.0238C20.6703 15.461 22.7899 14.583 25 14.583C27.2101 14.583 29.3298 15.461 30.8926 17.0238C32.4554 18.5866 33.3333 20.7062 33.3333 22.9163C33.3333 25.1265 32.4554 27.2461 30.8926 28.8089C29.3298 30.3717 27.2101 31.2497 25 31.2497Z" fill="#0A7DCD"/>
</svg>
