<svg width="127" height="31" viewBox="0 0 127 31" fill="none" xmlns="http://www.w3.org/2000/svg">
<path d="M14.4295 30L8.26953 19.12H5.62953V30H0.0295315V2.08H10.5095C12.6695 2.08 14.5095 2.46667 16.0295 3.24C17.5495 3.98667 18.6829 5.01333 19.4295 6.32C20.2029 7.6 20.5895 9.04 20.5895 10.64C20.5895 12.48 20.0562 14.1467 18.9895 15.64C17.9229 17.1067 16.3362 18.12 14.2295 18.68L20.9095 30H14.4295ZM5.62953 14.92H10.3095C11.8295 14.92 12.9629 14.56 13.7095 13.84C14.4562 13.0933 14.8295 12.0667 14.8295 10.76C14.8295 9.48 14.4562 8.49333 13.7095 7.8C12.9629 7.08 11.8295 6.72 10.3095 6.72H5.62953V14.92ZM26.2145 18.84C26.2145 16.6 26.6545 14.6133 27.5345 12.88C28.4412 11.1467 29.6545 9.81333 31.1745 8.88C32.7212 7.94667 34.4412 7.48 36.3345 7.48C37.9879 7.48 39.4279 7.81333 40.6545 8.48C41.9079 9.14667 42.9079 9.98667 43.6545 11V7.84H49.2945V30H43.6545V26.76C42.9345 27.8 41.9345 28.6667 40.6545 29.36C39.4012 30.0267 37.9479 30.36 36.2945 30.36C34.4279 30.36 32.7212 29.88 31.1745 28.92C29.6545 27.96 28.4412 26.6133 27.5345 24.88C26.6545 23.12 26.2145 21.1067 26.2145 18.84ZM43.6545 18.92C43.6545 17.56 43.3879 16.4 42.8545 15.44C42.3212 14.4533 41.6012 13.7067 40.6945 13.2C39.7879 12.6667 38.8145 12.4 37.7745 12.4C36.7345 12.4 35.7745 12.6533 34.8945 13.16C34.0145 13.6667 33.2945 14.4133 32.7345 15.4C32.2012 16.36 31.9345 17.5067 31.9345 18.84C31.9345 20.1733 32.2012 21.3467 32.7345 22.36C33.2945 23.3467 34.0145 24.1067 34.8945 24.64C35.8012 25.1733 36.7612 25.44 37.7745 25.44C38.8145 25.44 39.7879 25.1867 40.6945 24.68C41.6012 24.1467 42.3212 23.4 42.8545 22.44C43.3879 21.4533 43.6545 20.28 43.6545 18.92ZM62.3639 11.08C63.0839 10.0133 64.0706 9.14667 65.3239 8.48C66.6039 7.81333 68.0572 7.48 69.6839 7.48C71.5772 7.48 73.2839 7.94667 74.8039 8.88C76.3506 9.81333 77.5639 11.1467 78.4439 12.88C79.3506 14.5867 79.8039 16.5733 79.8039 18.84C79.8039 21.1067 79.3506 23.12 78.4439 24.88C77.5639 26.6133 76.3506 27.96 74.8039 28.92C73.2839 29.88 71.5772 30.36 69.6839 30.36C68.0306 30.36 66.5772 30.04 65.3239 29.4C64.0972 28.7333 63.1106 27.88 62.3639 26.84V30H56.7639V0.4H62.3639V11.08ZM74.0839 18.84C74.0839 17.5067 73.8039 16.36 73.2439 15.4C72.7106 14.4133 71.9906 13.6667 71.0839 13.16C70.2039 12.6533 69.2439 12.4 68.2039 12.4C67.1906 12.4 66.2306 12.6667 65.3239 13.2C64.4439 13.7067 63.7239 14.4533 63.1639 15.44C62.6306 16.4267 62.3639 17.5867 62.3639 18.92C62.3639 20.2533 62.6306 21.4133 63.1639 22.4C63.7239 23.3867 64.4439 24.1467 65.3239 24.68C66.2306 25.1867 67.1906 25.44 68.2039 25.44C69.2439 25.44 70.2039 25.1733 71.0839 24.64C71.9906 24.1067 72.7106 23.3467 73.2439 22.36C73.8039 21.3733 74.0839 20.2 74.0839 18.84ZM84.4333 18.84C84.4333 16.6 84.8733 14.6133 85.7533 12.88C86.6599 11.1467 87.8733 9.81333 89.3933 8.88C90.9399 7.94667 92.6599 7.48 94.5533 7.48C96.2066 7.48 97.6466 7.81333 98.8733 8.48C100.127 9.14667 101.127 9.98667 101.873 11V7.84H107.513V30H101.873V26.76C101.153 27.8 100.153 28.6667 98.8733 29.36C97.6199 30.0267 96.1666 30.36 94.5133 30.36C92.6466 30.36 90.9399 29.88 89.3933 28.92C87.8733 27.96 86.6599 26.6133 85.7533 24.88C84.8733 23.12 84.4333 21.1067 84.4333 18.84ZM101.873 18.92C101.873 17.56 101.607 16.4 101.073 15.44C100.54 14.4533 99.8199 13.7067 98.9133 13.2C98.0066 12.6667 97.0333 12.4 95.9933 12.4C94.9533 12.4 93.9933 12.6533 93.1133 13.16C92.2333 13.6667 91.5133 14.4133 90.9533 15.4C90.4199 16.36 90.1533 17.5067 90.1533 18.84C90.1533 20.1733 90.4199 21.3467 90.9533 22.36C91.5133 23.3467 92.2333 24.1067 93.1133 24.64C94.0199 25.1733 94.9799 25.44 95.9933 25.44C97.0333 25.44 98.0066 25.1867 98.9133 24.68C99.8199 24.1467 100.54 23.4 101.073 22.44C101.607 21.4533 101.873 20.28 101.873 18.92ZM121.503 12.44V23.16C121.503 23.9067 121.676 24.4533 122.023 24.8C122.396 25.12 123.009 25.28 123.863 25.28H126.463V30H122.943C118.223 30 115.863 27.7067 115.863 23.12V12.44H113.223V7.84H115.863V2.36H121.503V7.84H126.463V12.44H121.503Z" fill="#0A7DCD"/>
</svg>
