<svg width="499" height="503" viewBox="0 0 499 503" fill="none" xmlns="http://www.w3.org/2000/svg">
<g clip-path="url(#clip0)">
<path d="M249.505 503.011C387.303 503.011 499.011 438.513 499.011 358.95C499.011 279.388 387.303 214.89 249.505 214.89C111.707 214.89 0 279.388 0 358.95C0 438.513 111.707 503.011 249.505 503.011Z" fill="#F0F0F0"/>
<path opacity="0.07" d="M301.36 486.585L48.3346 340.484C48.0585 340.391 47.8187 340.213 47.6489 339.976C47.479 339.739 47.3877 339.455 47.3877 339.163C47.3877 338.872 47.479 338.587 47.6489 338.35C47.8187 338.113 48.0585 337.936 48.3346 337.842L198.317 251.241C199.026 250.882 199.81 250.694 200.605 250.694C201.4 250.694 202.184 250.882 202.893 251.241L455.929 397.341C456.205 397.435 456.445 397.613 456.615 397.85C456.785 398.087 456.876 398.371 456.876 398.662C456.876 398.954 456.785 399.238 456.615 399.475C456.445 399.712 456.205 399.89 455.929 399.984L305.936 486.585C305.227 486.944 304.443 487.131 303.648 487.131C302.853 487.131 302.069 486.944 301.36 486.585Z" fill="black"/>
<path d="M146.874 476.606C168.724 476.606 186.436 466.38 186.436 453.764C186.436 441.149 168.724 430.922 146.874 430.922C125.025 430.922 107.312 441.149 107.312 453.764C107.312 466.38 125.025 476.606 146.874 476.606Z" fill="#E0E0E0"/>
<path d="M391.602 354.057C412.418 354.057 429.293 344.313 429.293 332.293C429.293 320.273 412.418 310.529 391.602 310.529C370.786 310.529 353.911 320.273 353.911 332.293C353.911 344.313 370.786 354.057 391.602 354.057Z" fill="#E0E0E0"/>
<path d="M353.933 75.1219L360.275 78.7897C360.242 78.509 360.224 78.2267 360.222 77.9441V76.1049C360.222 72.8387 362.516 71.5069 365.348 73.1452C366.569 73.8932 367.615 74.8954 368.413 76.0837C368.868 71.972 372.102 70.4393 376.023 72.7013C378.264 74.1555 380.13 76.1173 381.471 78.4276C382.811 80.7379 383.588 83.3317 383.739 85.9985V88.7467C383.766 89.8388 383.546 90.9228 383.095 91.9178L388.379 94.9619C389.209 95.5001 389.901 96.2268 390.396 97.0828C390.892 97.9387 391.179 98.8998 391.233 99.8876C391.233 101.706 389.954 102.435 388.379 101.526L353.933 81.6965C353.107 81.1524 352.42 80.4226 351.926 79.5655C351.432 78.7084 351.146 77.7478 351.09 76.7602C351.09 74.9527 352.358 74.2128 353.933 75.1219Z" fill="#EBEBEB"/>
<path d="M395.873 58.273L399.372 59.6154V51.9098C399.372 45.8003 404.244 44.3311 409.54 47.3858C414.824 50.4406 419.116 57.8714 419.116 63.9809V65.1013C419.861 64.8735 420.649 64.817 421.419 64.936C422.189 65.0549 422.923 65.3463 423.565 65.7884C425.572 67.0975 427.242 68.8613 428.439 70.9366C429.636 73.0118 430.328 75.3402 430.457 77.7326V78.24L435.34 81.0622C436.662 81.9237 437.763 83.0847 438.552 84.451C439.342 85.8174 439.798 87.3506 439.885 88.9264C439.885 91.8226 437.845 92.9959 435.34 91.5478L395.873 68.7586C394.55 67.8984 393.448 66.7377 392.658 65.3711C391.869 64.0045 391.413 62.4706 391.328 60.8944C391.328 57.9982 393.358 56.8249 395.873 58.273Z" fill="#EBEBEB"/>
<path d="M412.837 325.126C415.194 321.881 421.937 318.583 430.604 317.325C439.271 316.067 448.012 314.345 446.385 309.26C444.63 303.764 436.713 302.971 428.723 305.624C420.003 308.52 413.133 316.702 412.646 322.114L412.837 325.126Z" fill="#27DEBF"/>
<g opacity="0.1">
<path opacity="0.1" d="M412.837 325.126C415.194 321.881 421.937 318.583 430.604 317.325C439.271 316.067 448.012 314.345 446.385 309.26C444.63 303.764 436.713 302.971 428.723 305.624C420.003 308.52 413.133 316.702 412.646 322.114L412.837 325.126Z" fill="black"/>
</g>
<path d="M412.277 323.541C412.398 323.546 412.517 323.518 412.623 323.46C412.73 323.402 412.818 323.317 412.879 323.213C420.616 309.641 436.492 308.415 441.417 309.556C441.583 309.593 441.756 309.562 441.898 309.471C442.041 309.38 442.142 309.235 442.178 309.07C442.215 308.905 442.184 308.732 442.093 308.589C442.001 308.446 441.857 308.345 441.692 308.309C436.545 307.146 419.887 308.383 411.791 322.579C411.737 322.673 411.708 322.779 411.706 322.887C411.704 322.996 411.73 323.103 411.781 323.199C411.831 323.295 411.905 323.376 411.995 323.436C412.086 323.496 412.19 323.532 412.298 323.541H412.277Z" fill="white"/>
<path d="M412.878 323.213C412.878 323.213 414.823 310.529 428.955 301.248C432.163 298.95 435.23 296.462 438.14 293.796C443.424 289.336 441.68 283.987 434.863 283.617C424.737 283.068 416.757 291.09 412.794 302.02C410.474 308.898 410.503 316.353 412.878 323.213Z" fill="#27DEBF"/>
<path d="M411.653 318.742C411.812 318.754 411.969 318.707 412.095 318.609C412.22 318.511 412.304 318.37 412.33 318.213C415.638 297.771 432.021 288.501 436.365 287.697C436.447 287.682 436.525 287.651 436.595 287.605C436.665 287.56 436.725 287.501 436.772 287.432C436.819 287.364 436.852 287.286 436.869 287.205C436.887 287.123 436.888 287.039 436.872 286.957C436.857 286.875 436.826 286.797 436.78 286.728C436.735 286.658 436.676 286.598 436.607 286.55C436.539 286.503 436.461 286.47 436.38 286.453C436.298 286.436 436.214 286.435 436.132 286.45C430.848 287.422 414.454 297.084 411.072 318.002C411.044 318.17 411.085 318.342 411.184 318.481C411.283 318.619 411.432 318.713 411.6 318.742H411.653Z" fill="white"/>
<path d="M106.7 354.183C107.122 351.678 107.376 348 107.45 347.091C107.761 343.881 107.401 340.641 106.393 337.578C105.928 336.246 105.008 334.946 104.839 333.582C104.67 332.218 104.987 331.003 104.639 329.65C104.306 328.301 103.707 327.033 102.877 325.918C102.048 324.804 101.005 323.866 99.8082 323.16C97.5041 321.839 94.5234 321.247 93.2234 318.932C92.3567 317.367 92.5575 315.454 92.6315 313.647C92.7372 310.92 92.4095 307.981 90.655 305.888C88.3931 303.182 84.4401 302.654 80.9415 303.013C77.443 303.373 73.9762 304.419 70.4671 304.134C64.5376 303.647 59.4747 299.441 53.5558 298.574C51.4674 298.299 49.3473 298.384 47.288 298.828C44.244 299.462 41.126 300.942 39.7096 303.711C39.1323 305.016 38.8879 306.443 38.9986 307.866C39.1093 309.288 39.5715 310.661 40.3438 311.86C41.9821 314.577 44.5716 316.279 47.3092 317.769C50.0467 319.26 52.15 320.887 50.7654 324.418C50.2833 325.416 49.9724 326.488 49.8459 327.589C49.8625 328.569 50.1358 329.528 50.6383 330.37C51.1409 331.212 51.8552 331.908 52.7102 332.388C54.4198 333.3 56.2767 333.905 58.1958 334.174L64.9286 335.548C66.884 335.95 69.2939 336.838 69.389 338.835C69.4524 340.072 68.5329 341.108 68.0467 342.25C67.6446 343.428 67.5986 344.7 67.9144 345.905C68.2302 347.11 68.8937 348.195 69.8223 349.025C71.7176 350.655 74.0681 351.662 76.5552 351.911C79.0179 352.27 81.5123 352.228 83.9539 352.503C87.7738 352.94 91.466 354.144 94.8088 356.044C95.6367 356.592 96.5464 357.006 97.5041 357.27C98.9415 357.544 106.435 355.769 106.7 354.183Z" fill="#27DEBF"/>
<g opacity="0.1">
<path opacity="0.1" d="M106.7 354.183C107.122 351.678 107.376 348 107.45 347.091C107.761 343.881 107.401 340.641 106.393 337.578C105.928 336.246 105.008 334.946 104.839 333.582C104.67 332.218 104.987 331.003 104.639 329.65C104.306 328.301 103.707 327.033 102.877 325.918C102.048 324.804 101.005 323.866 99.8082 323.16C97.5041 321.839 94.5234 321.247 93.2234 318.932C92.3567 317.367 92.5575 315.454 92.6315 313.647C92.7372 310.92 92.4095 307.981 90.655 305.888C88.3931 303.182 84.4401 302.654 80.9415 303.013C77.443 303.373 73.9762 304.419 70.4671 304.134C64.5376 303.647 59.4747 299.441 53.5558 298.574C51.4674 298.299 49.3473 298.384 47.288 298.828C44.244 299.462 41.126 300.942 39.7096 303.711C39.1323 305.016 38.8879 306.443 38.9986 307.866C39.1093 309.288 39.5715 310.661 40.3438 311.86C41.9821 314.577 44.5716 316.279 47.3092 317.769C50.0467 319.26 52.15 320.887 50.7654 324.418C50.2833 325.416 49.9724 326.488 49.8459 327.589C49.8625 328.569 50.1358 329.528 50.6383 330.37C51.1409 331.212 51.8552 331.908 52.7102 332.388C54.4198 333.3 56.2767 333.905 58.1958 334.174L64.9286 335.548C66.884 335.95 69.2939 336.838 69.389 338.835C69.4524 340.072 68.5329 341.108 68.0467 342.25C67.6446 343.428 67.5986 344.7 67.9144 345.905C68.2302 347.11 68.8937 348.195 69.8223 349.025C71.7176 350.655 74.0681 351.662 76.5552 351.911C79.0179 352.27 81.5123 352.228 83.9539 352.503C87.7738 352.94 91.466 354.144 94.8088 356.044C95.6367 356.592 96.5464 357.006 97.5041 357.27C98.9415 357.544 106.435 355.769 106.7 354.183Z" fill="black"/>
</g>
<path d="M102.641 356.519C102.466 356.506 102.299 356.444 102.158 356.339C102.018 356.234 101.91 356.091 101.848 355.927C93.3927 333.656 73.3739 315.845 45.4174 305.793C45.2075 305.695 45.0418 305.522 44.9526 305.309C44.8634 305.095 44.8572 304.855 44.9352 304.637C45.0132 304.419 45.1697 304.238 45.3743 304.129C45.5788 304.02 45.8166 303.992 46.041 304.049C74.5154 314.292 94.957 332.493 103.582 355.272C103.668 355.502 103.659 355.756 103.558 355.98C103.457 356.204 103.272 356.379 103.043 356.466C102.915 356.514 102.777 356.532 102.641 356.519Z" fill="white"/>
<path d="M101.923 364.468L98.3608 362.428C97.7755 362.045 97.2887 361.53 96.9398 360.924C96.5909 360.318 96.3897 359.638 96.3525 358.94V97.5832C96.39 96.8838 96.5925 96.2031 96.9433 95.5968C97.2942 94.9906 97.7835 94.476 98.3713 94.0951L260.53 0.486153C261.153 0.173689 261.841 0.0109863 262.538 0.0109863C263.235 0.0109863 263.923 0.173689 264.546 0.486153L268.076 2.52619C268.665 2.90647 269.155 3.42093 269.506 4.0273C269.856 4.63368 270.059 5.31466 270.095 6.01432V267.36C270.059 268.06 269.856 268.741 269.506 269.347C269.155 269.954 268.665 270.468 268.076 270.849L105.95 364.468C105.325 364.781 104.635 364.943 103.936 364.943C103.237 364.943 102.548 364.781 101.923 364.468Z" fill="#0A7DCD"/>
<path opacity="0.3" d="M101.923 364.468L98.3608 362.428C97.7755 362.045 97.2887 361.53 96.9398 360.924C96.5909 360.318 96.3897 359.638 96.3525 358.94V97.5832C96.39 96.8838 96.5925 96.2031 96.9433 95.5968C97.2942 94.9906 97.7835 94.476 98.3713 94.0951L260.53 0.486153C261.153 0.173689 261.841 0.0109863 262.538 0.0109863C263.235 0.0109863 263.923 0.173689 264.546 0.486153L268.076 2.52619C268.665 2.90647 269.155 3.42093 269.506 4.0273C269.856 4.63368 270.059 5.31466 270.095 6.01432V267.36C270.059 268.06 269.856 268.741 269.506 269.347C269.155 269.954 268.665 270.468 268.076 270.849L105.95 364.468C105.325 364.781 104.635 364.943 103.936 364.943C103.237 364.943 102.548 364.781 101.923 364.468Z" fill="#0A7DCD"/>
<path d="M270.074 5.67598C269.926 4.61897 269.081 4.24902 268.077 4.84094L105.95 98.4499C105.353 98.8188 104.861 99.3358 104.523 99.9508L96.9658 95.6171C97.3081 95.0113 97.7946 94.4994 98.3821 94.1267L260.519 0.486054C261.145 0.173475 261.834 0.0107422 262.533 0.0107422C263.232 0.0107422 263.921 0.173475 264.546 0.486054L268.077 2.52609C268.614 2.87944 269.07 3.34304 269.414 3.88611C269.759 4.42918 269.984 5.03931 270.074 5.67598Z" fill="#0A7DCD"/>
<path opacity="0.2" d="M270.074 5.67598C269.926 4.61897 269.081 4.24902 268.077 4.84094L105.95 98.4499C105.353 98.8188 104.861 99.3358 104.523 99.9508L96.9658 95.6171C97.3081 95.0113 97.7946 94.4994 98.3821 94.1267L260.519 0.486054C261.145 0.173475 261.834 0.0107422 262.533 0.0107422C263.232 0.0107422 263.921 0.173475 264.546 0.486054L268.077 2.52609C268.614 2.87944 269.07 3.34304 269.414 3.88611C269.759 4.42918 269.984 5.03931 270.074 5.67598Z" fill="#0A7DCD"/>
<path d="M105.59 364.627H105.474L105.263 364.701H105.178L104.808 364.796C104.005 364.949 103.175 364.879 102.409 364.595C102.255 364.541 102.107 364.474 101.965 364.394L98.3608 362.428C97.7767 362.044 97.2907 361.528 96.942 360.923C96.5932 360.317 96.3913 359.638 96.3525 358.94V97.5832C96.3801 96.8783 96.5836 96.1916 96.9444 95.5854L104.502 99.9509C104.136 100.551 103.932 101.236 103.91 101.938V363.305C103.887 363.682 103.995 364.056 104.216 364.362C104.343 364.513 104.508 364.625 104.695 364.687C104.882 364.749 105.082 364.757 105.273 364.711L105.59 364.627Z" fill="#0A7DCD"/>
<path opacity="0.4" d="M105.59 364.627H105.474L105.263 364.701H105.178L104.808 364.796C104.005 364.949 103.175 364.879 102.409 364.595C102.255 364.541 102.107 364.474 101.965 364.394L98.3608 362.428C97.7767 362.044 97.2907 361.528 96.942 360.923C96.5932 360.317 96.3913 359.638 96.3525 358.94V97.5832C96.3801 96.8783 96.5836 96.1916 96.9444 95.5854L104.502 99.9509C104.136 100.551 103.932 101.236 103.91 101.938V363.305C103.887 363.682 103.995 364.056 104.216 364.362C104.343 364.513 104.508 364.625 104.695 364.687C104.882 364.749 105.082 364.757 105.273 364.711L105.59 364.627Z" fill="#0A7DCD"/>
<path d="M162.433 87.0869C162.379 86.8134 162.256 86.5585 162.074 86.347L161.937 86.2307C161.831 86.15 161.707 86.0979 161.575 86.0794C161.444 86.0608 161.31 86.0766 161.186 86.125C161.09 86.152 160.998 86.1911 160.911 86.2413C160.408 86.5863 160.013 87.0663 159.77 87.626C159.475 88.2627 159.317 88.9539 159.305 89.6554C159.282 89.9132 159.311 90.1728 159.389 90.4195C159.467 90.6662 159.593 90.895 159.759 91.093C159.907 91.2457 160.106 91.3396 160.318 91.3571C160.529 91.3746 160.741 91.3145 160.911 91.1881C161.153 91.0433 161.365 90.8531 161.535 90.6279C161.699 90.425 161.841 90.2053 161.958 89.9725C162.304 89.3201 162.496 88.5968 162.518 87.8585C162.524 87.5987 162.495 87.3393 162.433 87.0869ZM188.794 28.1691C188.205 27.8324 187.538 27.6574 186.86 27.6617C185.566 27.7306 184.313 28.135 183.224 28.835C180.19 30.7193 177.855 33.5441 176.576 36.8788C176.364 37.3545 176.163 37.8407 175.984 38.3269C175.804 38.8132 175.614 39.2994 175.455 39.8068C175.297 40.3141 175.117 40.8638 174.969 41.3289C174.916 41.498 174.863 41.6671 174.821 41.8257C174.715 42.1745 174.62 42.5021 174.525 42.8827C174.531 42.9283 174.531 42.9745 174.525 43.0201L173.933 44.8804C173.849 45.2292 173.764 45.5569 173.669 45.9374L173.415 46.9416C173.056 48.2734 172.697 49.5524 172.284 50.7785C172.21 51.0322 172.126 51.2753 172.031 51.5184C171.936 51.7616 171.788 52.2161 171.65 52.5755C171.513 52.9348 171.439 53.0934 171.333 53.3365C171.164 53.7487 170.984 54.1398 170.805 54.5204C170.625 54.9009 170.561 55.0066 170.435 55.2391C167.602 60.6933 164.093 62.8285 162.116 65.6401C160.362 68.0818 159.855 70.0479 157.487 73.9165C156.747 75.1532 155.806 76.5802 154.559 78.282C151.145 82.9962 149.919 85.3322 149.496 86.7381C149.49 86.7766 149.49 86.8158 149.496 86.8543C149.496 86.9706 149.433 87.0657 149.412 87.1714C149.407 87.203 149.407 87.2351 149.412 87.2666C149.418 87.3545 149.418 87.4429 149.412 87.5308C149.393 87.8088 149.393 88.0878 149.412 88.3659V98.788L153.185 100.965V90.4693C153.141 89.9263 153.187 89.3798 153.323 88.8521C153.735 87.4357 154.95 85.1103 158.375 80.396C159.611 78.6836 160.552 77.225 161.313 76.02C163.67 72.1513 164.177 70.1958 165.932 67.7647C167.94 64.9531 171.407 62.8285 174.25 57.3532C174.7 56.4901 175.106 55.6046 175.466 54.7001C177.284 50.1549 178.098 44.1299 180.338 39.0563C181.64 35.724 183.992 32.9073 187.039 31.0336C189.333 29.7123 191.024 29.596 192.324 30.2091L188.794 28.1691ZM205.346 41.5825C205.028 41.4125 204.691 41.2812 204.342 41.1914C202.915 40.8532 200.79 41.6777 198.655 41.4346C201.647 45.3032 205.811 42.8192 208.168 43.3689C208.523 43.4517 208.862 43.5909 209.172 43.7811L205.346 41.5825ZM213.326 55.9896C213.214 56.0576 213.107 56.1354 213.009 56.2222L212.861 56.3807C212.806 56.432 212.757 56.4887 212.713 56.5498C212.078 57.3623 211.728 58.3618 211.719 59.3932C211.679 59.9081 211.838 60.4188 212.163 60.8201L212.29 60.9364C212.396 61.0162 212.52 61.0677 212.652 61.0862C212.783 61.1047 212.917 61.0895 213.041 61.0421C213.142 61.0219 213.239 60.9824 213.326 60.9258C213.444 60.8556 213.556 60.7779 213.664 60.6933C213.822 60.5359 213.967 60.3662 214.098 60.1859C214.629 59.4061 214.919 58.4871 214.933 57.5434C214.933 56.1693 214.214 55.4505 213.326 55.9896ZM215.799 46.4765C214.588 45.7946 213.269 45.3262 211.899 45.0918C211.328 44.965 210.842 44.8064 210.345 44.669C211.835 46.0035 213.664 46.903 215.63 47.2693C216.834 47.5029 218.006 47.8827 219.118 48.4003L215.799 46.4765Z" fill="#27DEBF"/>
<path opacity="0.8" d="M162.433 87.0869C162.379 86.8134 162.256 86.5585 162.074 86.347L161.937 86.2307C161.831 86.15 161.707 86.0979 161.575 86.0794C161.444 86.0608 161.31 86.0766 161.186 86.125C161.09 86.152 160.998 86.1911 160.911 86.2413C160.408 86.5863 160.013 87.0663 159.77 87.626C159.475 88.2627 159.317 88.9539 159.305 89.6554C159.282 89.9132 159.311 90.1728 159.389 90.4195C159.467 90.6662 159.593 90.895 159.759 91.093C159.907 91.2457 160.106 91.3396 160.318 91.3571C160.529 91.3746 160.741 91.3145 160.911 91.1881C161.153 91.0433 161.365 90.8531 161.535 90.6279C161.699 90.425 161.841 90.2053 161.958 89.9725C162.304 89.3201 162.496 88.5968 162.518 87.8585C162.524 87.5987 162.495 87.3393 162.433 87.0869ZM188.794 28.1691C188.205 27.8324 187.538 27.6574 186.86 27.6617C185.566 27.7306 184.313 28.135 183.224 28.835C180.19 30.7193 177.855 33.5441 176.576 36.8788C176.364 37.3545 176.163 37.8407 175.984 38.3269C175.804 38.8132 175.614 39.2994 175.455 39.8068C175.297 40.3141 175.117 40.8638 174.969 41.3289C174.916 41.498 174.863 41.6671 174.821 41.8257C174.715 42.1745 174.62 42.5021 174.525 42.8827C174.531 42.9283 174.531 42.9745 174.525 43.0201L173.933 44.8804C173.849 45.2292 173.764 45.5569 173.669 45.9374L173.415 46.9416C173.056 48.2734 172.697 49.5524 172.284 50.7785C172.21 51.0322 172.126 51.2753 172.031 51.5184C171.936 51.7616 171.788 52.2161 171.65 52.5755C171.513 52.9348 171.439 53.0934 171.333 53.3365C171.164 53.7487 170.984 54.1398 170.805 54.5204C170.625 54.9009 170.561 55.0066 170.435 55.2391C167.602 60.6933 164.093 62.8285 162.116 65.6401C160.362 68.0818 159.855 70.0479 157.487 73.9165C156.747 75.1532 155.806 76.5802 154.559 78.282C151.145 82.9962 149.919 85.3322 149.496 86.7381C149.49 86.7766 149.49 86.8158 149.496 86.8543C149.496 86.9706 149.433 87.0657 149.412 87.1714C149.407 87.203 149.407 87.2351 149.412 87.2666C149.418 87.3545 149.418 87.4429 149.412 87.5308C149.393 87.8088 149.393 88.0878 149.412 88.3659V98.788L153.185 100.965V90.4693C153.141 89.9263 153.187 89.3798 153.323 88.8521C153.735 87.4357 154.95 85.1103 158.375 80.396C159.611 78.6836 160.552 77.225 161.313 76.02C163.67 72.1513 164.177 70.1958 165.932 67.7647C167.94 64.9531 171.407 62.8285 174.25 57.3532C174.7 56.4901 175.106 55.6046 175.466 54.7001C177.284 50.1549 178.098 44.1299 180.338 39.0563C181.64 35.724 183.992 32.9073 187.039 31.0336C189.333 29.7123 191.024 29.596 192.324 30.2091L188.794 28.1691ZM205.346 41.5825C205.028 41.4125 204.691 41.2812 204.342 41.1914C202.915 40.8532 200.79 41.6777 198.655 41.4346C201.647 45.3032 205.811 42.8192 208.168 43.3689C208.523 43.4517 208.862 43.5909 209.172 43.7811L205.346 41.5825ZM213.326 55.9896C213.214 56.0576 213.107 56.1354 213.009 56.2222L212.861 56.3807C212.806 56.432 212.757 56.4887 212.713 56.5498C212.078 57.3623 211.728 58.3618 211.719 59.3932C211.679 59.9081 211.838 60.4188 212.163 60.8201L212.29 60.9364C212.396 61.0162 212.52 61.0677 212.652 61.0862C212.783 61.1047 212.917 61.0895 213.041 61.0421C213.142 61.0219 213.239 60.9824 213.326 60.9258C213.444 60.8556 213.556 60.7779 213.664 60.6933C213.822 60.5359 213.967 60.3662 214.098 60.1859C214.629 59.4061 214.919 58.4871 214.933 57.5434C214.933 56.1693 214.214 55.4505 213.326 55.9896ZM215.799 46.4765C214.588 45.7946 213.269 45.3262 211.899 45.0918C211.328 44.965 210.842 44.8064 210.345 44.669C211.835 46.0035 213.664 46.903 215.63 47.2693C216.834 47.5029 218.006 47.8827 219.118 48.4003L215.799 46.4765Z" fill="white"/>
<path d="M219.446 48.6011L219.15 48.4214C218.039 47.8991 216.867 47.5191 215.662 47.2904C213.695 46.9263 211.866 46.0265 210.377 44.6902C210.004 44.3421 209.592 44.0372 209.151 43.7811C208.823 43.5875 208.466 43.4483 208.094 43.3689C205.811 42.8193 201.647 45.3138 198.655 41.4346C198.62 41.3949 198.588 41.3525 198.56 41.3077C196.446 38.4961 195.706 32.2069 192.567 30.3571C192.466 30.2923 192.36 30.2357 192.25 30.188C190.961 29.5749 189.28 29.6912 186.965 31.0125C178.658 35.8113 178.383 47.1953 175.339 54.6789C172.295 62.1626 168.109 64.5197 165.826 67.7436C163.543 70.9675 163.374 73.3458 158.258 80.4277C153.143 87.5097 152.974 89.1904 152.974 90.5222V101.008L220.968 61.7186V51.2225C221.014 50.6822 220.892 50.1408 220.62 49.6719C220.348 49.2029 219.938 48.8291 219.446 48.6011ZM160.911 91.1881C160.024 91.706 159.305 91.019 159.305 89.6449C159.292 88.992 159.43 88.345 159.709 87.7545C159.987 87.1639 160.399 86.646 160.911 86.2413C161.799 85.7339 162.507 86.4316 162.507 87.7951C162.52 88.4453 162.383 89.0897 162.106 89.6782C161.829 90.2667 161.42 90.7834 160.911 91.1881ZM186.997 59.594C186.566 59.9143 186.066 60.1291 185.536 60.2209C185.007 60.3128 184.464 60.2793 183.95 60.123C183.436 59.9668 182.966 59.6922 182.577 59.3213C182.188 58.9504 181.892 58.4935 181.712 57.9874C181.123 56.6579 180.841 55.2127 180.888 53.7593C180.888 48.6117 183.604 42.8721 186.955 40.9378C187.408 40.6714 187.9 40.4788 188.413 40.367C191.056 39.8385 193.001 42.3859 193.001 46.7725C193.043 51.9201 190.316 57.6597 186.997 59.594ZM213.336 60.9153C212.438 61.4332 211.719 60.7462 211.719 59.3826C211.709 58.7307 211.85 58.0851 212.13 57.4965C212.411 56.9079 212.824 56.3922 213.336 55.9896C214.214 55.4823 214.932 56.1693 214.932 57.5329C214.944 58.1813 214.806 58.8236 214.529 59.4102C214.252 59.9967 213.844 60.5117 213.336 60.9153Z" fill="#27DEBF"/>
<path opacity="0.4" d="M219.446 48.6011L219.15 48.4214C218.039 47.8991 216.867 47.5191 215.662 47.2904C213.695 46.9263 211.866 46.0265 210.377 44.6902C210.004 44.3421 209.592 44.0372 209.151 43.7811C208.823 43.5875 208.466 43.4483 208.094 43.3689C205.811 42.8193 201.647 45.3138 198.655 41.4346C198.62 41.3949 198.588 41.3525 198.56 41.3077C196.446 38.4961 195.706 32.2069 192.567 30.3571C192.466 30.2923 192.36 30.2357 192.25 30.188C190.961 29.5749 189.28 29.6912 186.965 31.0125C178.658 35.8113 178.383 47.1953 175.339 54.6789C172.295 62.1626 168.109 64.5197 165.826 67.7436C163.543 70.9675 163.374 73.3458 158.258 80.4277C153.143 87.5097 152.974 89.1904 152.974 90.5222V101.008L220.968 61.7186V51.2225C221.014 50.6822 220.892 50.1408 220.62 49.6719C220.348 49.2029 219.938 48.8291 219.446 48.6011ZM160.911 91.1881C160.024 91.706 159.305 91.019 159.305 89.6449C159.292 88.992 159.43 88.345 159.709 87.7545C159.987 87.1639 160.399 86.646 160.911 86.2413C161.799 85.7339 162.507 86.4316 162.507 87.7951C162.52 88.4453 162.383 89.0897 162.106 89.6782C161.829 90.2667 161.42 90.7834 160.911 91.1881ZM186.997 59.594C186.566 59.9143 186.066 60.1291 185.536 60.2209C185.007 60.3128 184.464 60.2793 183.95 60.123C183.436 59.9668 182.966 59.6922 182.577 59.3213C182.188 58.9504 181.892 58.4935 181.712 57.9874C181.123 56.6579 180.841 55.2127 180.888 53.7593C180.888 48.6117 183.604 42.8721 186.955 40.9378C187.408 40.6714 187.9 40.4788 188.413 40.367C191.056 39.8385 193.001 42.3859 193.001 46.7725C193.043 51.9201 190.316 57.6597 186.997 59.594ZM213.336 60.9153C212.438 61.4332 211.719 60.7462 211.719 59.3826C211.709 58.7307 211.85 58.0851 212.13 57.4965C212.411 56.9079 212.824 56.3922 213.336 55.9896C214.214 55.4823 214.932 56.1693 214.932 57.5329C214.944 58.1813 214.806 58.8236 214.529 59.4102C214.252 59.9967 213.844 60.5117 213.336 60.9153Z" fill="#0A7DCD"/>
<path d="M153.323 88.8522C153.152 89.3739 153.07 89.9206 153.08 90.4695V100.966L149.254 98.7882V88.3026C149.234 88.0246 149.234 87.7456 149.254 87.4676C149.26 87.3796 149.26 87.2913 149.254 87.2033C149.249 87.1718 149.249 87.1397 149.254 87.1082C149.254 87.0025 149.306 86.9073 149.338 86.7911V86.6748L153.323 88.8522Z" fill="#27DEBF"/>
<path d="M165.88 67.7647C164.125 70.1959 163.618 72.1513 161.261 76.02L157.487 73.8426C159.855 69.9739 160.362 68.0079 162.117 65.5662L165.88 67.7647Z" fill="#27DEBF"/>
<path d="M180.296 39.0352C178.055 44.1194 177.241 50.1338 175.423 54.679C175.064 55.5835 174.658 56.469 174.208 57.3321L170.435 55.1652C170.561 54.9326 170.678 54.6895 170.804 54.4464C170.931 54.2033 171.164 53.6748 171.333 53.2626C171.439 53.0195 171.555 52.7658 171.65 52.5015C171.745 52.2373 171.914 51.825 172.031 51.4445C172.147 51.064 172.21 50.9583 172.284 50.7046C172.696 49.4785 173.056 48.1995 173.415 46.8677L173.669 45.8635C173.764 45.5252 173.849 45.1976 173.933 44.8065L174.44 42.9144C174.446 42.8688 174.446 42.8226 174.44 42.777C174.536 42.4282 174.631 42.1005 174.736 41.72C174.736 41.5615 174.831 41.3923 174.884 41.2232C175.032 40.7158 175.201 40.1662 175.371 39.7011C175.54 39.236 175.709 38.7075 175.899 38.2213C176.089 37.7351 176.28 37.2488 176.491 36.7732L180.296 39.0352Z" fill="#27DEBF"/>
<path opacity="0.65" d="M153.323 88.8522C153.152 89.3739 153.07 89.9206 153.08 90.4695V100.966L149.254 98.7882V88.3026C149.234 88.0246 149.234 87.7456 149.254 87.4676C149.26 87.3796 149.26 87.2913 149.254 87.2033C149.249 87.1718 149.249 87.1397 149.254 87.1082C149.254 87.0025 149.306 86.9073 149.338 86.7911V86.6748L153.323 88.8522Z" fill="white"/>
<path opacity="0.65" d="M165.88 67.7647C164.125 70.1959 163.618 72.1513 161.261 76.02L157.487 73.8426C159.855 69.9739 160.362 68.0079 162.117 65.5662L165.88 67.7647Z" fill="white"/>
<path opacity="0.65" d="M180.296 39.0352C178.055 44.1194 177.241 50.1338 175.423 54.679C175.064 55.5835 174.658 56.469 174.208 57.3321L170.435 55.1652C170.561 54.9326 170.678 54.6895 170.804 54.4464C170.931 54.2033 171.164 53.6748 171.333 53.2626C171.439 53.0195 171.555 52.7658 171.65 52.5015C171.745 52.2373 171.914 51.825 172.031 51.4445C172.147 51.064 172.21 50.9583 172.284 50.7046C172.696 49.4785 173.056 48.1995 173.415 46.8677L173.669 45.8635C173.764 45.5252 173.849 45.1976 173.933 44.8065L174.44 42.9144C174.446 42.8688 174.446 42.8226 174.44 42.777C174.536 42.4282 174.631 42.1005 174.736 41.72C174.736 41.5615 174.831 41.3923 174.884 41.2232C175.032 40.7158 175.201 40.1662 175.371 39.7011C175.54 39.236 175.709 38.7075 175.899 38.2213C176.089 37.7351 176.28 37.2488 176.491 36.7732L180.296 39.0352Z" fill="white"/>
<path d="M159.77 87.6261C159.476 88.2628 159.317 88.954 159.305 89.6555C159.283 89.9133 159.311 90.1729 159.389 90.4196C159.467 90.6663 159.593 90.8951 159.76 91.0931C159.429 90.69 159.267 90.1753 159.305 89.6555C159.323 88.9547 159.481 88.2645 159.77 87.6261ZM162.518 87.8057C162.52 87.5636 162.491 87.3222 162.434 87.087C162.482 87.3235 162.507 87.5643 162.508 87.8057C162.489 88.5433 162.301 89.2666 161.958 89.9198C162.305 89.2673 162.496 88.544 162.518 87.8057ZM212.291 60.9365C212.396 61.0163 212.521 61.0678 212.652 61.0863C212.783 61.1048 212.917 61.0896 213.041 61.0422C212.916 61.0842 212.784 61.0965 212.653 61.0782C212.523 61.0598 212.399 61.0113 212.291 60.9365Z" fill="#27DEBF"/>
<path d="M193.053 46.7725C193.053 51.9201 190.337 57.6597 186.997 59.594C186.566 59.9146 186.067 60.1297 185.538 60.2223C185.009 60.3149 184.466 60.2822 183.952 60.1271C183.439 59.9719 182.968 59.6985 182.579 59.3287C182.19 58.959 181.893 58.5032 181.712 57.998C182.231 57.8871 182.727 57.6906 183.181 57.4166C186.574 55.4506 189.259 49.7427 189.259 44.5845C189.306 43.131 189.024 41.6857 188.434 40.3564C191.087 39.8385 193.053 42.3859 193.053 46.7725Z" fill="#27DEBF"/>
<path opacity="0.1" d="M193.053 46.7725C193.053 51.9201 190.337 57.6597 186.997 59.594C186.566 59.9146 186.067 60.1297 185.538 60.2223C185.009 60.3149 184.466 60.2822 183.952 60.1271C183.439 59.9719 182.968 59.6985 182.579 59.3287C182.19 58.959 181.893 58.5032 181.712 57.998C182.231 57.8871 182.727 57.6906 183.181 57.4166C186.574 55.4506 189.259 49.7427 189.259 44.5845C189.306 43.131 189.024 41.6857 188.434 40.3564C191.087 39.8385 193.053 42.3859 193.053 46.7725Z" fill="black"/>
<path d="M161.958 89.9726C161.841 90.2054 161.699 90.425 161.536 90.6279C161.366 90.8531 161.154 91.0433 160.912 91.1881C160.741 91.3146 160.53 91.3747 160.318 91.3572C160.106 91.3397 159.908 91.2458 159.76 91.093C159.593 90.8951 159.467 90.6662 159.389 90.4195C159.311 90.1728 159.283 89.9132 159.305 89.6554C159.317 88.954 159.476 88.2628 159.77 87.626C160.013 87.0663 160.409 86.5864 160.912 86.2413C160.998 86.1911 161.091 86.152 161.187 86.125C161.34 86.0716 161.506 86.0641 161.664 86.1035C161.821 86.143 161.964 86.2276 162.075 86.347C162.256 86.5585 162.38 86.8134 162.434 87.0869C162.491 87.3222 162.52 87.5635 162.518 87.8057C162.503 88.5618 162.311 89.3038 161.958 89.9726Z" fill="#455A64"/>
<path d="M214.932 57.5645C214.919 58.5082 214.629 59.4272 214.097 60.2071C213.966 60.3873 213.821 60.557 213.664 60.7144C213.556 60.7991 213.443 60.8767 213.326 60.947C213.239 61.0036 213.142 61.043 213.04 61.0633C212.889 61.1202 212.724 61.1294 212.567 61.0898C212.41 61.0501 212.269 60.9634 212.163 60.8413C211.838 60.4399 211.679 59.9292 211.719 59.4143C211.728 58.383 212.077 57.3835 212.712 56.571C212.756 56.5098 212.806 56.4532 212.86 56.4018L213.008 56.2433C213.107 56.1565 213.213 56.0787 213.326 56.0107C214.213 55.4505 214.932 56.1693 214.932 57.5645Z" fill="#37474F"/>
<path d="M262.496 43.9609C262.348 43.4641 261.883 43.3055 261.333 43.6226L120.24 125.087C119.884 125.309 119.589 125.618 119.384 125.985L115.61 123.808C115.664 123.712 115.724 123.62 115.79 123.533C115.855 123.447 115.925 123.366 116.001 123.29C116.138 123.141 116.294 123.013 116.466 122.909L257.56 41.4452C257.67 41.3798 257.787 41.3266 257.908 41.2866C258.487 41.0861 259.116 41.0861 259.695 41.2866C259.788 41.3181 259.876 41.3607 259.959 41.4135L261.333 42.1957C261.404 42.239 261.471 42.2885 261.534 42.3437C261.597 42.3841 261.654 42.434 261.703 42.4916C261.782 42.564 261.856 42.6417 261.925 42.7242C261.98 42.7903 262.03 42.861 262.073 42.9356C262.128 43.009 262.178 43.0868 262.221 43.1681C262.308 43.3296 262.379 43.4996 262.432 43.6755C262.46 43.7691 262.481 43.8645 262.496 43.9609Z" fill="white"/>
<path d="M450.106 390.523L352.496 338.36L339.199 329.745C328.21 322.619 318.163 314.135 309.298 304.493C279.228 271.789 262.539 228.982 262.538 184.554V132.761L258.236 130.287L119.035 127.211C119.052 126.791 119.172 126.381 119.384 126.017L115.61 123.839C115.555 123.935 115.505 124.034 115.462 124.135C115.336 124.418 115.267 124.724 115.262 125.034V213.115H115.198V264.908C115.198 267.371 115.198 269.844 115.272 272.307V272.392C115.345 278.716 115.829 285.029 116.72 291.291C117.347 295.456 118.122 299.585 119.046 303.679C125.841 333.995 140.482 361.993 161.504 384.868C170.355 394.518 180.391 403.009 191.373 410.141L204.67 418.756L301.339 474.566H301.392L305.62 477.019C306.329 477.378 307.113 477.565 307.908 477.565C308.703 477.565 309.487 477.378 310.196 477.019L449.165 396.865C449.426 396.75 449.651 396.567 449.817 396.334C449.983 396.102 450.082 395.829 450.106 395.544V390.523Z" fill="#EBEBEB"/>
<path opacity="0.1" d="M450.106 390.523V395.491C450.084 395.776 449.985 396.049 449.819 396.282C449.653 396.515 449.427 396.698 449.165 396.812L310.239 477.04C309.534 477.416 308.744 477.606 307.945 477.589V472.621C308.744 472.639 309.535 472.45 310.239 472.072L449.165 391.866C449.428 391.747 449.654 391.56 449.82 391.323C449.985 391.087 450.084 390.811 450.106 390.523Z" fill="black"/>
<path d="M449.165 389.223L352.496 333.445L339.199 324.83C328.21 317.704 318.163 309.22 309.298 299.578C279.228 266.874 262.539 224.067 262.538 179.639V44.3414C262.553 44.2221 262.553 44.1014 262.538 43.982C262.39 43.4852 261.925 43.3267 261.376 43.6438L120.24 125.087C119.884 125.309 119.589 125.618 119.384 125.985C119.172 126.349 119.052 126.759 119.035 127.179V262.477C119.05 306.896 135.737 349.691 165.795 382.395C174.658 392.039 184.705 400.523 195.696 407.647L208.993 416.261L305.662 472.072C306.371 472.431 307.155 472.618 307.95 472.618C308.746 472.618 309.529 472.431 310.239 472.072L449.165 391.866C449.441 391.772 449.681 391.594 449.851 391.357C450.021 391.12 450.112 390.836 450.112 390.544C450.112 390.253 450.021 389.969 449.851 389.732C449.681 389.495 449.441 389.317 449.165 389.223Z" fill="#FAFAFA"/>
<path d="M175.698 73.4199L175.498 73.7265C175.04 74.4596 174.718 75.2686 174.546 76.1153C174.546 76.1787 174.546 76.221 174.546 76.2421C174.544 76.2597 174.544 76.2775 174.546 76.295L172.221 89.2751L171.492 93.4186C171.461 93.5938 171.418 93.7668 171.365 93.9365C171.33 94.1061 171.281 94.2724 171.217 94.4333C171.172 94.5438 171.133 94.6567 171.101 94.7715L174.863 96.949C175.043 96.5167 175.178 96.0668 175.265 95.6066L175.994 91.4631L178.277 78.5041C178.451 77.4626 178.856 76.4732 179.461 75.6079L175.698 73.4199Z" fill="#27DEBF"/>
<path d="M149.718 115.267C149.338 115.859 148.968 116.472 148.661 117.074C148.492 117.37 148.344 117.666 148.207 117.952C148.069 118.237 147.837 118.713 147.678 119.093C147.52 119.474 147.319 119.939 147.16 120.362C147.002 120.784 146.843 121.207 146.706 121.641C146.569 122.074 146.378 122.634 146.241 123.142C146.146 123.469 146.061 123.797 145.966 124.199C145.755 124.991 145.575 125.805 145.406 126.619C145.342 126.905 145.279 127.2 145.226 127.475C145.173 127.75 145.089 128.162 145.025 128.532C145.025 128.532 145.025 128.532 145.025 128.585C145.025 128.86 145.025 129.04 145.163 129.114C145.181 129.122 145.201 129.126 145.221 129.126C145.241 129.126 145.261 129.122 145.279 129.114L148.45 126.566L148.978 126.143L149.232 125.953L149.517 125.731L149.739 125.562C149.798 125.507 149.862 125.457 149.93 125.414C150.883 121.983 152.463 118.757 154.591 115.901L150.87 113.586C150.458 114.178 150.067 114.717 149.718 115.267Z" fill="#27DEBF"/>
<path d="M190.528 44.9546C190.358 45.24 190.2 45.5254 190.052 45.8213C189.946 45.9823 189.854 46.1521 189.777 46.3287C189.64 46.5718 189.524 46.8149 189.397 47.058C189.27 47.3012 189.196 47.4491 189.111 47.65C188.921 48.0411 188.752 48.4216 188.593 48.8021C188.435 49.1826 188.234 49.6372 188.075 50.0494C187.928 50.4193 187.79 50.7999 187.674 51.1698C187.473 51.73 187.304 52.3008 187.145 52.8716C187.061 53.1676 186.987 53.4635 186.913 53.7595C186.911 53.7806 186.911 53.8018 186.913 53.8229L186.818 54.2774C186.733 54.6368 186.659 54.9856 186.606 55.3344C186.553 55.6833 186.49 55.8947 186.416 56.1695C186.342 56.4443 186.268 56.7508 186.173 57.0468C186.078 57.3428 185.993 57.5965 185.909 57.8818C185.909 57.8818 185.909 57.8818 185.909 57.9558C185.792 58.2518 185.676 58.5689 185.539 58.886C185.401 59.2031 185.285 59.5096 185.137 59.8267C185.097 59.909 185.061 59.9937 185.031 60.0804L184.683 60.7992C184.492 61.1903 184.292 61.5814 184.091 61.9619C183.89 62.3424 183.816 62.4798 183.668 62.7335L187.388 64.9638C188.747 62.6664 189.735 60.1695 190.316 57.5647C191.031 53.8878 192.376 50.362 194.29 47.1426L190.528 44.9546Z" fill="#27DEBF"/>
<path d="M212.977 53.3366C212.793 53.2179 212.583 53.1454 212.364 53.1252C212.733 53.7072 213.227 54.1991 213.81 54.565C214.394 54.9308 215.052 55.1612 215.736 55.2393C216.06 55.2405 216.38 55.3089 216.677 55.4401L212.977 53.3366Z" fill="#27DEBF"/>
<path opacity="0.8" d="M212.977 53.3366C212.793 53.2179 212.583 53.1454 212.364 53.1252C212.733 53.7072 213.227 54.1991 213.81 54.565C214.394 54.9308 215.052 55.1612 215.736 55.2393C216.06 55.2405 216.38 55.3089 216.677 55.4401L212.977 53.3366Z" fill="white"/>
<path d="M227.003 69.7519C226.411 69.4634 225.757 69.3223 225.098 69.3407C224.44 69.3591 223.795 69.5364 223.219 69.8576C218.833 71.8025 216.93 72.6693 214.669 73.6206C214.225 76.5274 215.948 76.7916 216.783 76.4639C219.953 75.1955 221.592 74.4239 226.982 72.0562C227.551 71.7353 228.19 71.5563 228.843 71.5342C229.496 71.5121 230.145 71.6477 230.734 71.9294L227.003 69.7519Z" fill="#27DEBF"/>
<path opacity="0.8" d="M227.003 69.7519C226.411 69.4634 225.757 69.3223 225.098 69.3407C224.44 69.3591 223.795 69.5364 223.219 69.8576C218.833 71.8025 216.93 72.6693 214.669 73.6206C214.225 76.5274 215.948 76.7916 216.783 76.4639C219.953 75.1955 221.592 74.4239 226.982 72.0562C227.551 71.7353 228.19 71.5563 228.843 71.5342C229.496 71.5121 230.145 71.6477 230.734 71.9294L227.003 69.7519Z" fill="white"/>
<path d="M174.863 96.97C174.066 98.747 172.94 100.357 171.544 101.716L159.717 110.584C157.827 112.144 156.125 113.918 154.643 115.869L150.87 113.586C152.351 111.653 154.054 109.901 155.944 108.365L167.781 99.4857C169.171 98.1264 170.297 96.5206 171.1 94.7502L174.863 96.97Z" fill="#27DEBF"/>
<path opacity="0.8" d="M174.863 96.97C174.066 98.747 172.94 100.357 171.544 101.716L159.717 110.584C157.827 112.144 156.125 113.918 154.643 115.869L150.87 113.586C152.351 111.653 154.054 109.901 155.944 108.365L167.781 99.4857C169.171 98.1264 170.297 96.5206 171.1 94.7502L174.863 96.97Z" fill="white"/>
<path d="M187.388 64.9637C185.766 67.9809 183.763 70.7768 181.427 73.2824C180.687 73.9975 180.028 74.7915 179.461 75.6501L175.698 73.5361C176.242 72.6405 176.891 71.8136 177.632 71.0732C179.969 68.5724 181.973 65.7798 183.594 62.7651L187.388 64.9637Z" fill="#27DEBF"/>
<path opacity="0.8" d="M187.388 64.9637C185.766 67.9809 183.763 70.7768 181.427 73.2824C180.687 73.9975 180.028 74.7915 179.461 75.6501L175.698 73.5361C176.242 72.6405 176.891 71.8136 177.632 71.0732C179.969 68.5724 181.973 65.7798 183.594 62.7651L187.388 64.9637Z" fill="white"/>
<path d="M208.707 37.0692C207.312 36.3399 205.462 36.4667 203.274 37.6083C200.04 39.2995 196.785 42.8933 194.311 47.1214L190.527 44.9439C193.011 40.7159 196.267 37.1115 199.511 35.4308C200.568 34.8296 201.753 34.4924 202.968 34.4478C203.706 34.4392 204.434 34.6212 205.082 34.9763L208.707 37.0692Z" fill="#27DEBF"/>
<path opacity="0.8" d="M208.707 37.0692C207.312 36.3399 205.462 36.4667 203.274 37.6083C200.04 39.2995 196.785 42.8933 194.311 47.1214L190.527 44.9439C193.011 40.7159 196.267 37.1115 199.511 35.4308C200.568 34.8296 201.753 34.4924 202.968 34.4478C203.706 34.4392 204.434 34.6212 205.082 34.9763L208.707 37.0692Z" fill="white"/>
<path opacity="0.65" d="M154.643 115.817C152.516 118.673 150.935 121.898 149.982 125.33C149.914 125.373 149.85 125.422 149.792 125.478L149.57 125.647L149.284 125.869L149.031 126.059L148.502 126.482L145.331 129.029C145.313 129.037 145.293 129.041 145.273 129.041C145.253 129.041 145.234 129.037 145.215 129.029C145.088 128.955 145.036 128.775 145.078 128.501C145.078 128.501 145.078 128.501 145.078 128.448C145.141 128.099 145.215 127.761 145.279 127.391C145.342 127.021 145.395 126.82 145.458 126.535C145.627 125.721 145.807 124.907 146.019 124.114C146.114 123.765 146.198 123.438 146.293 123.057C146.431 122.55 146.589 122.053 146.758 121.556C146.927 121.059 147.054 120.7 147.213 120.277C147.371 119.854 147.551 119.432 147.731 119.009C147.91 118.586 148.069 118.248 148.259 117.867C148.45 117.487 148.545 117.286 148.714 116.99C149.031 116.387 149.401 115.774 149.771 115.182C150.141 114.59 150.511 114.125 150.923 113.544L154.643 115.817Z" fill="white"/>
<path opacity="0.65" d="M179.461 75.629C178.856 76.4943 178.451 77.4838 178.277 78.5252L175.994 91.4842L175.265 95.6277C175.178 96.0879 175.043 96.5378 174.863 96.9701L171.101 94.7927C171.133 94.6778 171.172 94.5649 171.217 94.4544C171.281 94.2935 171.33 94.1272 171.365 93.9576C171.418 93.7879 171.461 93.6149 171.492 93.4397L172.221 89.2962L174.515 76.3372C174.512 76.3197 174.512 76.3019 174.515 76.2844C174.515 76.2844 174.515 76.221 174.515 76.1575C174.687 75.3109 175.009 74.5018 175.466 73.7687L175.667 73.4622L179.461 75.629Z" fill="white"/>
<path opacity="0.65" d="M194.311 47.1319C192.388 50.3531 191.036 53.8827 190.316 57.5646C189.728 60.1706 188.733 62.6676 187.367 64.9637L183.583 62.7863C183.731 62.5326 183.868 62.2789 184.006 62.0146C184.143 61.7504 184.407 61.243 184.598 60.8519L184.946 60.1332C184.976 60.0465 185.012 59.9617 185.052 59.8795C185.19 59.5729 185.327 59.2453 185.454 58.9387C185.581 58.6322 185.707 58.3045 185.824 58.0086C185.824 58.0086 185.824 57.9557 185.824 57.9346C185.908 57.6492 186.014 57.3744 186.088 57.0995C186.162 56.8247 186.268 56.5076 186.331 56.2222C186.395 55.9368 186.468 55.662 186.521 55.3872C186.574 55.1124 186.648 54.6895 186.733 54.3302L186.828 53.8756C186.826 53.8545 186.826 53.8333 186.828 53.8122C186.902 53.5163 186.976 53.2203 187.06 52.9243C187.219 52.3536 187.388 51.7828 187.589 51.2226C187.705 50.8526 187.843 50.4721 187.991 50.1021C188.149 49.6899 188.329 49.2671 188.508 48.8548C188.688 48.4426 188.836 48.0938 189.026 47.7027C189.111 47.5019 189.217 47.3116 189.312 47.1108C189.407 46.9099 189.555 46.6246 189.692 46.3814C189.769 46.2048 189.861 46.0351 189.967 45.8741C190.115 45.5781 190.274 45.2927 190.443 45.0073L194.311 47.1319Z" fill="white"/>
<path d="M145.269 129.04L148.439 126.492C147.192 127.497 145.448 128.86 145.269 129.04Z" fill="#27DEBF"/>
<path d="M230.808 71.9612H230.756C230.164 71.6803 229.514 71.5444 228.86 71.5646C228.206 71.5849 227.566 71.7606 226.993 72.0774C221.613 74.4557 219.985 75.2485 216.804 76.4957C215.948 76.8446 214.225 76.5592 214.69 73.6524C214.685 73.5855 214.685 73.5184 214.69 73.4515L215.419 69.3081L217.459 58.0192C217.459 58.0192 217.924 56.2434 216.74 55.5669C216.74 55.5669 216.74 55.5669 216.656 55.5669C216.363 55.4249 216.041 55.3526 215.715 55.3555C215.032 55.2789 214.375 55.049 213.793 54.683C213.211 54.3169 212.719 53.8242 212.354 53.2415C211.725 52.3029 211.289 51.2485 211.071 50.1397C210.853 49.031 210.858 47.89 211.086 46.7831C211.942 41.942 211.001 38.549 208.855 37.27L208.686 37.1643C207.302 36.435 205.441 36.5513 203.275 37.6928C197.546 40.6525 191.754 49.5419 190.316 57.5647C189.429 62.6277 184.345 70.4073 181.406 73.2718C178.468 76.1363 178.235 78.5569 178.235 78.5569L175.952 91.5264L175.223 95.6699C174.684 98.767 171.503 101.758 171.503 101.758L159.675 110.627C154.954 114.385 151.546 119.544 149.941 125.361C149.941 125.361 145.501 128.807 145.227 129.082L146.738 128.215L228.399 81.2734L229.54 80.6392C229.741 80.5124 233.028 77.4048 233.028 77.4048C232.954 74.6777 232.172 72.7751 230.808 71.9612ZM207.228 48.1361C206.35 53.0618 202.799 58.5583 199.269 60.408C196.827 61.687 195.041 60.8942 194.46 58.6534C194.197 57.3914 194.197 56.089 194.46 54.827C195.337 49.9013 198.899 44.4049 202.429 42.5657C202.767 42.3875 203.121 42.2424 203.486 42.1323C206.34 41.2444 207.999 43.7072 207.228 48.1361Z" fill="#27DEBF"/>
<path opacity="0.55" d="M230.808 71.9612H230.756C230.164 71.6803 229.514 71.5444 228.86 71.5646C228.206 71.5849 227.566 71.7606 226.993 72.0774C221.613 74.4557 219.985 75.2485 216.804 76.4957C215.948 76.8446 214.225 76.5592 214.69 73.6524C214.685 73.5855 214.685 73.5184 214.69 73.4515L215.419 69.3081L217.459 58.0192C217.459 58.0192 217.924 56.2434 216.74 55.5669C216.74 55.5669 216.74 55.5669 216.656 55.5669C216.363 55.4249 216.041 55.3526 215.715 55.3555C215.032 55.2789 214.375 55.049 213.793 54.683C213.211 54.3169 212.719 53.8242 212.354 53.2415C211.725 52.3029 211.289 51.2485 211.071 50.1397C210.853 49.031 210.858 47.89 211.086 46.7831C211.942 41.942 211.001 38.549 208.855 37.27L208.686 37.1643C207.302 36.435 205.441 36.5513 203.275 37.6928C197.546 40.6525 191.754 49.5419 190.316 57.5647C189.429 62.6277 184.345 70.4073 181.406 73.2718C178.468 76.1363 178.235 78.5569 178.235 78.5569L175.952 91.5264L175.223 95.6699C174.684 98.767 171.503 101.758 171.503 101.758L159.675 110.627C154.954 114.385 151.546 119.544 149.941 125.361C149.941 125.361 145.501 128.807 145.227 129.082L146.738 128.215L228.399 81.2734L229.54 80.6392C229.741 80.5124 233.028 77.4048 233.028 77.4048C232.954 74.6777 232.172 72.7751 230.808 71.9612ZM207.228 48.1361C206.35 53.0618 202.799 58.5583 199.269 60.408C196.827 61.687 195.041 60.8942 194.46 58.6534C194.197 57.3914 194.197 56.089 194.46 54.827C195.337 49.9013 198.899 44.4049 202.429 42.5657C202.767 42.3875 203.121 42.2424 203.486 42.1323C206.34 41.2444 207.999 43.7072 207.228 48.1361Z" fill="#0A7DCD"/>
<path d="M145.279 129.05L228.451 81.231L229.603 80.5968C229.804 80.47 233.091 77.3518 233.091 77.3518L149.982 125.319C149.982 125.319 144.951 129.219 145.279 129.05Z" fill="#27DEBF"/>
<path d="M203.433 42.1322C203.068 42.2423 202.714 42.3874 202.376 42.5656C198.846 44.4048 195.284 49.9012 194.407 54.8269C194.144 56.0889 194.144 57.3913 194.407 58.6533C194.999 60.8942 196.774 61.6869 199.216 60.4079C202.746 58.5582 206.298 53.0617 207.175 48.136C207.999 43.7072 206.34 41.2443 203.433 42.1322ZM194.66 58.5582C194.411 57.3412 194.411 56.0862 194.66 54.8692C195.517 50.0069 199.047 44.5739 202.503 42.777C202.811 42.6117 203.133 42.4738 203.465 42.3648C203.692 43.5484 203.692 44.7644 203.465 45.948C202.598 50.8843 199.036 56.3702 195.506 58.2199C195.246 58.3526 194.977 58.469 194.703 58.5687L194.66 58.5582Z" fill="#27DEBF"/>
<path opacity="0.1" d="M203.433 42.1322C203.068 42.2423 202.714 42.3874 202.376 42.5656C198.846 44.4048 195.284 49.9012 194.407 54.8269C194.144 56.0889 194.144 57.3913 194.407 58.6533C194.999 60.8942 196.774 61.6869 199.216 60.4079C202.746 58.5582 206.298 53.0617 207.175 48.136C207.999 43.7072 206.34 41.2443 203.433 42.1322ZM194.66 58.5582C194.411 57.3412 194.411 56.0862 194.66 54.8692C195.517 50.0069 199.047 44.5739 202.503 42.777C202.811 42.6117 203.133 42.4738 203.465 42.3648C203.692 43.5484 203.692 44.7644 203.465 45.948C202.598 50.8843 199.036 56.3702 195.506 58.2199C195.246 58.3526 194.977 58.469 194.703 58.5687L194.66 58.5582Z" fill="black"/>
<path d="M377.662 220.345C375.759 223.727 363.551 234.466 362.442 235.693C361.332 236.919 360.032 238.039 358.932 239.064C357.622 240.291 356.586 241.686 354.853 242.383C354.615 242.503 354.354 242.57 354.088 242.581C353.822 242.592 353.557 242.546 353.309 242.447C353.066 242.32 352.887 242.109 352.654 241.982C352.422 241.855 351.809 241.781 351.481 241.527C351.153 241.274 350.984 240.47 350.509 240.1C350.281 239.987 350.044 239.895 349.8 239.825C349.367 239.635 349.092 238.927 348.913 238.515C348.817 238.293 348.733 237.796 348.395 237.838C347.511 238.052 346.642 238.324 345.795 238.652C343.818 239.297 342.539 239.434 342.254 238.472C341.841 237.13 343.395 236.792 345.784 235.777C348.173 234.762 353.183 232.669 352.961 232.12C352.739 231.57 351.079 230.608 350.413 229.382C349.748 228.156 349.969 226.602 350.868 227.268C351.375 227.67 353.341 228.663 354.208 229.16C355.075 229.657 356.639 230.598 357.706 230.217C358.774 229.837 369.523 216.476 369.523 216.476C369.523 216.476 378.106 198.095 380.241 194.332C382.376 190.569 384.088 188.423 387.639 188.296L388.083 195.082L387.164 202.735C387.164 202.735 379.194 217.596 377.662 220.345Z" fill="#FFA8A7"/>
<path d="M388.77 188.159C388.77 188.159 385.293 187.281 383.062 189.712C380.832 192.143 379.892 194.014 378.01 197.915C376.129 201.815 370.981 212.945 370.981 212.945C371.986 214.334 373.335 215.436 374.896 216.144C376.457 216.852 378.175 217.142 379.881 216.983L389.277 199.204L388.77 188.159Z" fill="#263238"/>
<path d="M381.963 205.25C382.526 207.964 382.743 210.738 382.608 213.506C382.365 217.142 379.775 223.812 379.775 223.812C379.775 223.812 381.815 225.661 387.354 224.795C391.867 224.086 390.271 210.483 387.681 207.882C386.179 206.31 384.135 205.369 381.963 205.25Z" fill="#37474F"/>
<path d="M413.186 321.353C413.511 323.149 413.684 324.97 413.704 326.796C413.768 330.094 414.381 331.267 414.455 333.973C414.55 337.07 414.011 338.201 412.753 339.977C411.495 341.753 408.208 343.296 406.813 340.347C405.418 337.398 405.597 335.485 406.041 332.441C406.485 329.396 406.559 327.568 406.823 325.179C407.066 323.065 407.341 321.458 407.341 321.458L413.186 321.353Z" fill="#263238"/>
<path d="M403.821 295.392L414.697 295.192C414.528 302.453 413.376 314.546 413.186 321.353C413.186 322.632 413.186 331.32 412.742 333.952C412.013 337.916 407.309 337.388 407.056 335.009C406.802 332.631 407.362 322.505 407.341 321.458C407.341 317.093 405.333 305.688 404.265 297.845C404.212 297.507 403.821 295.762 403.821 295.392Z" fill="#FFA8A7"/>
<path d="M387.83 315.708C387.83 315.708 388.39 315.708 388.485 316.194C388.58 316.681 388.612 317.6 388.834 318.499C389.206 319.901 389.338 321.355 389.225 322.801C389.035 323.858 386.72 325.327 385.145 325.591C383.239 326.166 381.502 327.197 380.083 328.593C378.093 330.238 375.631 331.204 373.054 331.352C370.411 331.352 368.572 330.475 367.695 329.058C366.818 327.642 368.488 327.473 371.511 325.517L373.857 323.995C378.635 320.824 380.389 319.196 381.742 316.068L387.83 315.708Z" fill="#263238"/>
<path d="M381.71 314.006C381.784 311.755 380.653 295.192 380.653 295.192L390.007 296.249C387.798 309.451 387.618 313.943 387.893 315.867C387.943 316.045 387.965 316.231 387.957 316.416C387.957 318.985 385.05 320.37 382.788 322.082C381.054 323.627 379.07 324.867 376.922 325.75C375.178 326.342 371.965 326.564 371.553 325.507C374.631 323.329 377.532 320.911 380.23 318.277C381.234 317.135 381.626 316.247 381.71 314.006Z" fill="#FFA8A7"/>
<path d="M406.907 217.015C410.106 221.211 412.431 226.006 413.746 231.116C416.832 243.588 411.981 270.225 411.981 270.225C412.139 272.032 414.211 275.595 414.982 283.554C415.891 292.961 413.302 318.15 413.302 318.15C412.389 318.712 411.342 319.02 410.27 319.042C409.198 319.065 408.139 318.8 407.203 318.277C407.203 318.277 400.618 281.281 399.445 271.916C398.388 263.756 396.274 246.802 396.274 246.802L391.56 271.874C391.56 271.874 392.216 276.451 392.554 279.928C393.093 285.435 387.734 313.045 387.734 313.045C386.769 313.444 385.733 313.64 384.689 313.62C383.645 313.6 382.616 313.365 381.667 312.928C381.667 312.928 379.289 277.254 378.792 270.648C378.285 263.83 380.05 247.933 381.361 235.27C381.752 231.464 383.686 219.689 384.362 216.423L406.907 217.015Z" fill="#455A64"/>
<path opacity="0.6" d="M396.317 246.844L395.196 239.117C391.967 238.919 388.841 237.908 386.106 236.179C388 238.52 390.728 240.036 393.717 240.407L394.425 247.32L392.195 268.883L396.317 246.844Z" fill="#263238"/>
<path d="M383.845 208.77C383.961 211.043 384.405 216.444 384.405 216.444C393.664 222.712 406.908 217.015 406.908 217.015L408.831 203.845C408.831 203.845 404.001 197.08 408.535 189.945L401.295 188.518L392.66 187.81L387.639 188.264C384.807 190.378 382.925 194.606 382.016 196.89C381.128 198.832 380.828 200.992 381.153 203.104C381.478 205.215 382.414 207.185 383.845 208.77Z" fill="#27DEBF"/>
<g opacity="0.6">
<path opacity="0.6" d="M383.845 208.77C383.961 211.043 384.405 216.444 384.405 216.444C393.664 222.712 406.908 217.015 406.908 217.015L408.831 203.845C408.831 203.845 404.001 197.08 408.535 189.945L401.295 188.518L392.66 187.81L387.639 188.264C384.807 190.378 382.925 194.606 382.016 196.89C381.128 198.832 380.828 200.992 381.153 203.104C381.478 205.215 382.414 207.185 383.845 208.77Z" fill="white"/>
</g>
<path d="M402.024 188.285C402.024 188.285 409.962 188.972 411.537 189.712C413.112 190.452 415.68 194.934 413.366 201.456C411.051 207.978 408.937 215.609 409.138 217.152C409.339 218.696 414.909 226.665 414.909 226.665C413.38 227.793 411.651 228.622 409.814 229.107L406.992 222.892L407.658 229.477C404.793 230.164 401.851 230.473 398.906 230.397C398.906 230.397 396.232 205.145 402.024 188.285Z" fill="#37474F"/>
<path d="M364.492 215.144L387.946 216.719L399.869 243.155L377.461 241.083L364.492 215.144Z" fill="#27DEBF"/>
<path opacity="0.3" d="M364.492 215.144L387.946 216.719L399.869 243.155L377.461 241.083L364.492 215.144Z" fill="#0A7DCD"/>
<path opacity="0.15" d="M386.202 233.43C386.541 234.317 387.112 235.096 387.856 235.686C388.6 236.275 389.489 236.654 390.43 236.781C392.528 236.952 394.634 236.558 396.529 235.64L395.525 233.43H386.202Z" fill="black"/>
<path opacity="0.15" d="M371.807 217.892L371.458 217.078C371.257 216.624 372.568 216.349 374.375 216.465L377.821 216.687C379.628 216.804 381.245 217.258 381.435 217.744L381.784 218.558L371.807 217.892Z" fill="black"/>
<path d="M369.639 214.975C369.512 214.7 370.03 214.52 370.791 214.573L372.155 214.689C372.155 214.689 371.415 212.924 374.427 213.009C375.218 212.976 376.004 213.147 376.709 213.507C377.415 213.866 378.016 214.401 378.454 215.059L379.923 215.186C380.558 215.184 381.173 215.409 381.657 215.82L381.921 216.317L369.84 215.503L369.639 214.975Z" fill="#F0F0F0"/>
<path d="M371.394 215.588C372.503 215.641 372.969 215.704 373.264 216.391C373.56 217.079 373.793 217.776 373.793 217.776L379.141 218.146C379.141 218.146 378.687 217.142 378.528 216.751C378.37 216.36 378.528 216.074 379.353 216.138V215.8L370.981 215.303L371.394 215.588Z" fill="#E0E0E0"/>
<path d="M371.68 217.998L371.331 217.184C371.141 216.73 372.441 216.455 374.248 216.571L377.704 216.793C379.501 216.909 381.118 217.364 381.319 217.85L381.657 218.664L371.68 217.998Z" fill="#F5F5F5"/>
<path d="M401.232 187.049H381.763V169.693C381.763 165.922 383.26 162.306 385.926 159.64C388.593 156.974 392.208 155.476 395.979 155.476C399.744 155.484 403.351 156.986 406.011 159.651C408.67 162.316 410.163 165.928 410.163 169.693V178.064C410.169 180.44 409.231 182.72 407.557 184.405C405.882 186.089 403.607 187.04 401.232 187.049Z" fill="#263238"/>
<path d="M385.631 163.805C384.807 164.143 383.094 165.602 383.062 174.069C383.062 181.235 385.303 183.074 386.455 183.582C387.607 184.089 389.869 183.878 392.068 183.582L392.015 187.112C390.159 190.381 389.54 194.207 390.271 197.894C394.774 194.416 401.528 188.508 401.528 188.508L401.739 178.561C401.739 178.561 402.997 179.851 405.227 178.001C407.077 176.479 407.753 173.836 406.39 172.367C406.032 172.025 405.599 171.771 405.126 171.626C404.653 171.481 404.152 171.449 403.664 171.532C403.176 171.615 402.714 171.811 402.316 172.105C401.917 172.399 401.593 172.782 401.369 173.223C396.676 173.223 394.657 167.991 394.351 164.767C392.691 165.961 388.168 166.955 385.631 163.805Z" fill="#FFA8A7"/>
<path d="M388.199 170.062C392.935 169.365 394.351 164.777 394.351 164.777C394.351 164.777 397.131 157.378 389.732 156.945C378.359 156.226 379.49 170.094 379.49 170.094L388.199 170.062Z" fill="#263238"/>
<path d="M391.201 172.261C391.193 172.435 391.237 172.608 391.327 172.758C391.417 172.908 391.549 173.028 391.706 173.103C391.864 173.178 392.04 173.205 392.213 173.18C392.386 173.156 392.547 173.081 392.678 172.965C392.808 172.849 392.902 172.697 392.946 172.528C392.991 172.359 392.985 172.181 392.929 172.016C392.873 171.85 392.769 171.705 392.631 171.599C392.493 171.492 392.326 171.428 392.152 171.415C392.034 171.408 391.916 171.425 391.804 171.463C391.693 171.502 391.59 171.562 391.501 171.641C391.413 171.719 391.341 171.815 391.289 171.921C391.238 172.027 391.208 172.143 391.201 172.261Z" fill="#263238"/>
<path d="M391.138 178.635L388.696 179.343C388.737 179.506 388.809 179.659 388.91 179.793C389.011 179.928 389.137 180.04 389.282 180.125C389.426 180.21 389.587 180.265 389.753 180.286C389.919 180.308 390.088 180.297 390.25 180.252C390.577 180.147 390.851 179.921 391.016 179.62C391.181 179.32 391.225 178.967 391.138 178.635Z" fill="#F28F8F"/>
<path d="M383.971 170.063L385.853 168.868C385.78 168.746 385.684 168.64 385.569 168.556C385.455 168.472 385.325 168.412 385.187 168.38C385.049 168.347 384.906 168.343 384.766 168.367C384.626 168.391 384.492 168.443 384.373 168.519C384.118 168.673 383.933 168.921 383.858 169.209C383.783 169.498 383.824 169.804 383.971 170.063Z" fill="#263238"/>
<path d="M392.089 169.111L394.002 170.168C394.075 170.047 394.123 169.912 394.143 169.771C394.163 169.631 394.155 169.488 394.118 169.351C394.082 169.214 394.018 169.085 393.931 168.973C393.844 168.861 393.735 168.768 393.611 168.699C393.352 168.561 393.051 168.527 392.768 168.604C392.486 168.681 392.243 168.862 392.089 169.111Z" fill="#263238"/>
<path d="M384.395 172.092C384.383 172.21 384.395 172.329 384.43 172.443C384.465 172.556 384.521 172.662 384.597 172.753C384.673 172.845 384.766 172.92 384.871 172.975C384.976 173.031 385.091 173.065 385.209 173.075C385.448 173.087 385.683 173.003 385.861 172.843C386.039 172.682 386.146 172.458 386.16 172.219C386.172 172.101 386.16 171.982 386.125 171.868C386.091 171.755 386.034 171.649 385.958 171.558C385.882 171.466 385.789 171.391 385.684 171.336C385.579 171.28 385.464 171.247 385.346 171.236C385.107 171.224 384.873 171.308 384.694 171.468C384.516 171.629 384.409 171.853 384.395 172.092Z" fill="#263238"/>
<path d="M388.76 171.606L388.654 177.377L385.874 176.436L388.76 171.606Z" fill="#F28F8F"/>
<path d="M392.11 183.846C394.382 183.614 399.086 182.398 399.858 180.569C399.539 181.496 398.946 182.304 398.156 182.884C396.74 184.036 392.089 185.262 392.089 185.262L392.11 183.846Z" fill="#F28F8F"/>
<path d="M388.855 229.784C390.428 229.589 391.959 229.143 393.39 228.462C392.516 228.335 391.661 228.104 390.842 227.775C390.468 227.636 390.159 227.361 389.979 227.004C389.799 226.647 389.76 226.236 389.87 225.852C389.997 225.535 390.768 225.915 392.164 225.852C393.779 225.614 395.421 225.614 397.036 225.852C397.744 226 398.706 226.486 399.33 226.126C404.006 223.236 408.525 220.099 412.869 216.73L408.747 204.405C407.772 202.039 407.365 199.477 407.56 196.925C407.755 194.374 408.545 191.903 409.868 189.712C412.668 190.199 414.835 190.769 416.928 198.168C419.126 205.99 422.213 216.138 422.044 219.372C421.875 222.607 413.451 225.926 407.119 229.075C404.445 230.407 400.027 232.944 398.294 233.843C392.301 236.961 389.394 236.665 387.312 234.635C383.983 231.411 385.251 230.238 388.855 229.784Z" fill="#FFA8A7"/>
<path d="M409.498 189.205C415.173 189.554 415.839 193.93 417.456 198.264C418.989 202.301 420.976 212.946 420.976 212.946C420.976 212.946 416.822 217.121 412.372 216.032L408.43 203.676C408.43 203.676 403.737 194.131 409.498 189.205Z" fill="#263238"/>
<path d="M192.901 305.468C193.461 304.147 194.909 303.185 197.129 302.92C199.519 302.766 201.912 303.176 204.115 304.116C206.318 305.056 208.27 306.5 209.812 308.332C211.134 310.097 211.44 311.799 210.869 313.131L174.595 408.178C173.886 410.175 171.836 411.634 168.633 412.025C162.514 412.765 154.565 409.372 150.866 404.457C148.921 401.867 148.551 399.383 149.502 397.491L192.901 305.468Z" fill="#455A64"/>
<path d="M209.812 308.332C212.455 311.863 211.059 315.15 206.641 315.679C204.251 315.834 201.858 315.424 199.655 314.484C197.451 313.544 195.5 312.1 193.958 310.267C191.305 306.736 192.711 303.449 197.129 302.92C199.519 302.766 201.912 303.176 204.115 304.116C206.318 305.056 208.269 306.5 209.812 308.332Z" fill="#37474F"/>
<path d="M210.753 277.838C212.202 277.738 213.653 277.984 214.989 278.553C216.324 279.123 217.506 280 218.437 281.114C218.795 281.495 219.044 281.964 219.157 282.474C219.271 282.984 219.245 283.514 219.082 284.011L207.318 311.62C207.069 312.077 206.703 312.46 206.257 312.729C205.812 312.999 205.302 313.145 204.782 313.152C203.332 313.251 201.881 313.007 200.544 312.44C199.207 311.872 198.022 310.997 197.087 309.886C196.731 309.502 196.484 309.031 196.371 308.52C196.257 308.009 196.282 307.478 196.442 306.979L208.217 279.413C208.458 278.946 208.822 278.553 209.268 278.276C209.715 277.999 210.228 277.847 210.753 277.838Z" fill="#27DEBF"/>
<path d="M210.753 277.838C212.202 277.738 213.653 277.984 214.989 278.553C216.324 279.123 217.506 280 218.437 281.114C218.795 281.495 219.044 281.964 219.157 282.474C219.271 282.984 219.245 283.514 219.082 284.011L207.318 311.62C207.069 312.077 206.703 312.46 206.257 312.729C205.812 312.999 205.302 313.145 204.782 313.152C203.332 313.251 201.881 313.007 200.544 312.44C199.207 311.872 198.022 310.997 197.087 309.886C196.731 309.502 196.484 309.031 196.371 308.52C196.257 308.009 196.282 307.478 196.442 306.979L208.217 279.413C208.458 278.946 208.822 278.553 209.268 278.276C209.715 277.999 210.228 277.847 210.753 277.838Z" fill="#0A7DCD"/>
<path opacity="0.2" d="M202.794 292.097L203.608 292.572L203.735 292.646L203.893 292.731L204.062 292.826C204.583 293.131 205.12 293.41 205.669 293.661C206.335 293.999 207.022 294.295 207.698 294.559C208.306 294.82 208.927 295.049 209.558 295.246C210.262 295.453 210.967 295.658 211.672 295.86C212.042 295.965 212.391 296.06 212.729 296.134C212.997 296.206 213.269 296.262 213.543 296.303L213.807 296.356L219.092 284C219.255 283.504 219.281 282.973 219.167 282.463C219.054 281.954 218.805 281.484 218.447 281.104C218.141 280.686 217.786 280.307 217.391 279.973C214.108 280.986 210.708 281.569 207.275 281.706L202.794 292.097Z" fill="black"/>
<path opacity="0.15" d="M202.393 315.351L164.12 411.856C165.611 412.106 167.13 412.152 168.633 411.994C171.804 411.602 173.918 410.154 174.595 408.135L210.869 313.11C210.299 314.442 208.851 315.383 206.641 315.647C205.219 315.792 203.781 315.692 202.393 315.351Z" fill="black"/>
<path d="M321.987 163.564C321.987 162.771 321.934 161.989 321.871 161.207C321.807 160.425 321.776 159.664 321.691 158.903C321.691 158.385 321.596 157.846 321.533 157.37C321.406 156.049 321.215 154.738 320.993 153.491C320.898 152.92 320.793 152.339 320.676 151.768C320.56 151.197 320.454 150.711 320.349 150.161C320.011 148.713 319.662 147.307 319.292 145.933C319.08 145.288 318.88 144.654 318.668 144.02C318.622 143.926 318.59 143.827 318.573 143.724C318.34 143.1 318.119 142.498 317.886 141.906C317.653 141.314 317.336 140.532 317.03 139.887C316.723 139.242 316.597 138.936 316.343 138.471C316.201 138.106 316.032 137.752 315.836 137.414C315.635 137.001 315.423 136.579 315.191 136.187C315.143 136.094 315.086 136.006 315.022 135.923C314.831 135.574 314.62 135.215 314.409 134.866C314.197 134.517 314.113 134.422 313.975 134.2C312.978 132.621 311.854 131.126 310.614 129.729C310.403 129.486 310.181 129.253 309.991 129.021C309.8 128.788 309.642 128.651 309.462 128.471C309.282 128.292 309.008 128.027 308.775 127.784C308.138 127.136 307.46 126.529 306.746 125.966C306.407 125.681 306.059 125.406 305.689 125.152C305.319 124.899 304.981 124.624 304.632 124.37C304.071 123.959 303.489 123.578 302.888 123.228L302.423 122.943L302.328 122.859L291.335 116.495L291.177 116.4C285.86 113.442 279.863 111.926 273.779 112.003C264.7 112.003 254.458 114.973 243.614 121.231C206.314 142.762 176.127 195.095 176.127 238.189C176.127 259.657 183.631 274.762 195.776 281.833L195.881 281.896L206.779 288.281L206.906 288.365L207.064 288.45L207.233 288.545C207.754 288.851 208.29 289.129 208.84 289.38C209.5 289.714 210.178 290.014 210.869 290.279C211.477 290.54 212.098 290.77 212.729 290.966C213.057 291.082 213.385 291.177 213.723 291.262C214.067 291.39 214.42 291.493 214.78 291.568C215.127 291.678 215.48 291.77 215.837 291.843C216.1 291.923 216.368 291.983 216.64 292.023C217.116 292.118 217.613 292.223 218.109 292.276C218.221 292.297 218.336 292.297 218.448 292.276C219.029 292.371 219.621 292.456 220.191 292.519C230.254 293.576 241.944 290.733 254.447 283.524C291.737 261.993 321.966 209.629 321.966 166.598C322.061 165.604 322.04 164.589 321.987 163.564ZM199.01 265.143C197.453 259.386 196.685 253.444 196.727 247.48C196.727 206.68 226.576 154.981 261.899 134.581C267.057 131.528 272.623 129.226 278.43 127.742C281.197 127.059 284.035 126.704 286.885 126.685C288.33 126.68 289.772 126.794 291.198 127.023H291.314C298.544 135.574 299.611 149.284 299.611 156.619C299.611 197.41 269.794 249.108 234.45 269.498C225.466 274.688 216.82 277.425 209.411 277.425C207.873 277.435 206.341 277.239 204.855 276.844C202.126 273.385 200.136 269.402 199.01 265.143Z" fill="#37474F"/>
<path opacity="0.25" d="M312.359 163.744C312.359 185.423 303.903 210.157 290.744 231.667C290.12 232.724 289.486 233.686 288.831 234.69C288.176 235.695 287.721 236.424 287.14 237.28C285.903 239.119 284.645 240.937 283.335 242.713C282.711 243.559 282.087 244.394 281.443 245.218C280.798 246.043 280.048 247.036 279.329 247.935C277.969 249.647 276.56 251.314 275.101 252.934C274.16 253.991 273.198 255.048 272.237 256.105C264.934 264.145 256.478 271.056 247.144 276.611C245.453 277.584 243.78 278.472 242.124 279.275C236.754 282.006 230.936 283.747 224.948 284.412C223.976 284.507 223.025 284.539 222.105 284.539C221.619 284.539 221.143 284.539 220.678 284.539H220.625C219.726 284.5 218.829 284.404 217.941 284.254C217.507 284.19 217.085 284.127 216.672 284.032C216.26 283.937 215.848 283.852 215.436 283.725C211.26 282.656 207.548 280.251 204.866 276.876C206.349 277.27 207.877 277.465 209.411 277.457C216.81 277.457 225.477 274.719 234.461 269.529C269.806 249.15 299.612 197.441 299.612 156.651C299.612 149.316 298.555 135.617 291.325 127.055H291.209C300.415 128.524 305.658 134.792 308.607 142.033C309.444 144.091 310.119 146.211 310.625 148.375C310.625 148.491 310.625 148.607 310.699 148.734C310.794 149.115 310.89 149.516 310.964 149.908C311.038 150.299 311.112 150.669 311.186 151.049C311.21 151.146 311.228 151.245 311.238 151.345C311.323 151.754 311.397 152.155 311.46 152.55C311.682 154.072 311.873 155.541 311.999 156.958C311.999 157.37 312.073 157.751 312.094 158.142C312.116 158.533 312.147 158.734 312.158 159.019C312.158 159.146 312.158 159.273 312.158 159.389C312.158 159.706 312.158 160.013 312.211 160.319C312.216 160.407 312.216 160.495 312.211 160.583C312.211 160.974 312.211 161.366 312.211 161.735C312.348 162.391 312.359 163.141 312.359 163.744Z" fill="black"/>
<path d="M205.87 287.742L195.734 281.78C183.589 274.688 176.127 259.594 176.127 238.189C176.127 218.994 182.152 197.959 192.098 178.637L203.608 185.244C193.641 204.566 187.045 225.41 187.045 244.584C187.035 265.576 194.18 280.47 205.87 287.742Z" fill="#263238"/>
<path d="M302.391 122.975L302.296 122.89L291.335 116.506L291.187 116.411C285.871 113.442 279.868 111.922 273.779 112.003C264.71 112.003 254.458 114.973 243.603 121.231C222.95 133.164 204.496 154.569 192.087 178.605L203.544 185.339L203.291 185.814C215.71 162.042 234.112 140.521 254.542 127.679C273.039 116.051 290.595 115.861 302.856 123.324L302.391 122.975Z" fill="#455A64"/>
<path opacity="0.3" d="M306.482 160.287C306.482 201.077 276.634 252.786 241.31 273.176C236.145 276.239 230.567 278.545 224.748 280.026C221.98 280.709 219.142 281.064 216.292 281.083C213.345 281.121 210.415 280.623 207.646 279.613C203.26 275.935 200.617 270.608 199.032 265.132C197.474 259.375 196.706 253.433 196.749 247.47C196.749 206.669 226.597 154.971 261.921 134.57C267.079 131.518 272.645 129.215 278.451 127.731C281.219 127.048 284.057 126.693 286.907 126.674C289.855 126.641 292.784 127.143 295.553 128.154C299.939 131.822 302.582 137.16 304.167 142.635C305.735 148.387 306.514 154.326 306.482 160.287Z" fill="white"/>
<path d="M169.39 347.864C171.387 348.308 175.203 348.71 175.203 348.71L177.94 342.907L171.8 340.063L169.39 347.864Z" fill="#FFA8A7"/>
<path d="M154.444 343.53C159.267 346.02 164.539 347.518 169.95 347.938L173.248 342.97L156.675 331.798L154.444 343.53Z" fill="#31A6E8"/>
<path opacity="0.3" d="M154.444 343.53C159.267 346.02 164.539 347.518 169.95 347.938L173.248 342.97L156.675 331.798L154.444 343.53Z" fill="#31A6E8"/>
<path d="M168.914 347.854L171.704 348.266L173.818 341.924C173.818 341.924 171.081 340.613 171.007 340.655C170.933 340.698 168.914 347.854 168.914 347.854Z" fill="#31A6E8"/>
<path opacity="0.4" d="M168.914 347.854L171.704 348.266L173.818 341.924C173.818 341.924 171.081 340.613 171.007 340.655C170.933 340.698 168.914 347.854 168.914 347.854Z" fill="#31A6E8"/>
<path d="M131.931 308.332C130.577 308.151 129.2 308.391 127.986 309.019C126.773 309.646 125.781 310.632 125.146 311.841C124.179 314.094 123.814 316.561 124.089 318.997C124.723 324.589 128.919 336.797 128.919 336.797L131.931 308.332Z" fill="#31A6E8"/>
<path opacity="0.4" d="M131.931 308.332C130.577 308.151 129.2 308.391 127.986 309.019C126.773 309.646 125.781 310.632 125.146 311.841C124.179 314.094 123.814 316.561 124.089 318.997C124.723 324.589 128.919 336.797 128.919 336.797L131.931 308.332Z" fill="#31A6E8"/>
<path d="M125.907 439.623C125.421 439.803 125.146 440.68 124.934 442.921C124.808 444.295 124.332 446.092 126.425 447.223C127.191 447.619 128.042 447.821 128.904 447.811C129.767 447.802 130.614 447.582 131.371 447.17C133.189 446.05 134.098 443.999 136.223 442.298C138.093 440.839 140.45 439.761 141.941 437.097C143.431 434.433 143.209 432.668 140.112 432.668C135.145 432.668 133.654 435.406 131.096 435.459C129.712 435.49 126.425 439.444 125.907 439.623Z" fill="#263238"/>
<path d="M125.906 438.524V440.765C125.906 441.822 130.557 443.481 131.857 440.987C131.952 440.775 132.459 437.71 132.459 437.71L125.906 438.524Z" fill="#FFA8A7"/>
<path d="M147.48 452.625C147.48 452.625 146.602 452.625 146.253 456.229C146.116 457.603 145.788 460.457 146.253 461.44C146.718 462.423 149.266 462.909 152.12 463.163C154.266 463.504 156.316 464.297 158.134 465.488C159.992 466.546 162.084 467.124 164.222 467.169C166.917 467.169 169.2 466.905 171.124 465.383C172.181 464.579 173.438 462.878 172.487 461.588C172.092 461.203 171.592 460.942 171.05 460.837C169.855 460.383 168.64 459.971 167.424 459.59C165.597 459.044 163.813 458.362 162.087 457.55C159.571 456.303 156.802 454.918 154.868 452.804L147.48 452.625Z" fill="#263238"/>
<path d="M147.49 450.764C147.49 450.764 147.49 452.424 147.49 453.364C147.49 454.305 148.547 455.732 151.486 455.648C153.525 455.584 154.942 455.045 154.868 453.364V450.944L147.49 450.764Z" fill="#FFA8A7"/>
<path d="M124.649 408.875C125.168 404.921 126.07 401.027 127.344 397.248C127.344 397.248 126.604 387.206 126.287 377.682C125.994 367.929 126.266 358.167 127.101 348.445C127.101 348.445 159.454 345.38 159.983 357.261C160.511 369.142 159.74 399.383 159.327 404.605C158.915 409.826 158.482 414.72 157.383 424.423C156.431 432.795 154.888 450.944 154.888 450.944C153.735 451.525 152.456 451.811 151.165 451.778C149.874 451.745 148.611 451.393 147.49 450.754C147.49 450.754 145.059 426.379 144.773 420.354C144.414 412.553 146.232 408.241 146.232 408.241C146.232 408.241 145.545 403.336 144.34 393.231C143.494 386.096 142.363 377.978 142.363 377.978C142.363 377.978 141.306 388.031 140.588 393.633C139.964 398.833 138.907 402.945 137.343 412.659C135.99 421.115 132.301 438.852 132.301 438.852C131.34 439.458 130.215 439.754 129.08 439.697C127.945 439.64 126.855 439.234 125.959 438.535C125.959 438.535 123.592 416.168 124.649 408.875Z" fill="#263238"/>
<path d="M142.364 378.01L140.831 368.074C140.831 368.074 134.489 366.077 131.318 362.324C131.318 362.324 133.02 366.69 138.886 369.036L141.243 377.397L141.645 384.299L142.364 378.01Z" fill="black"/>
<path d="M147.669 305.404L146.158 316.027L136.613 315.689L137.522 303.29L147.669 305.404Z" fill="#FFA8A7"/>
<path d="M154.529 292.308C154.529 292.308 157.087 296.06 156.812 296.44C156.156 296.808 155.441 297.058 154.698 297.18L154.529 292.308Z" fill="#F28F8F"/>
<path d="M150.523 291.684C150.504 291.053 150.674 290.431 151.01 289.897C151.347 289.363 151.836 288.942 152.413 288.688C152.99 288.433 153.631 288.356 154.252 288.468C154.873 288.579 155.447 288.873 155.9 289.313C156.353 289.752 156.665 290.317 156.795 290.935C156.925 291.552 156.868 292.194 156.631 292.779C156.394 293.364 155.988 293.865 155.465 294.218C154.942 294.571 154.325 294.76 153.694 294.76C153.283 294.767 152.876 294.693 152.494 294.542C152.112 294.391 151.764 294.166 151.47 293.88C151.175 293.595 150.94 293.254 150.777 292.877C150.615 292.5 150.528 292.094 150.523 291.684ZM151.21 291.684C151.216 292.165 151.365 292.634 151.638 293.03C151.911 293.427 152.295 293.733 152.742 293.911C153.19 294.089 153.68 294.13 154.15 294.029C154.621 293.928 155.051 293.69 155.386 293.345C155.721 292.999 155.946 292.562 156.032 292.089C156.119 291.615 156.063 291.127 155.871 290.685C155.68 290.244 155.362 289.869 154.957 289.608C154.553 289.348 154.08 289.213 153.599 289.221C152.958 289.232 152.347 289.496 151.9 289.956C151.452 290.415 151.204 291.032 151.21 291.674V291.684Z" fill="#263238"/>
<path d="M147.416 281.907C152.489 282.9 153.99 285.078 154.592 293.132C155.227 301.535 154.413 304.188 153.324 305.341C152.595 306.112 148.452 306.313 146.348 305.774C143.727 305.097 137.787 303.089 134.944 298.914C131.614 293.988 130.652 287.287 134.098 284.443C138.939 280.469 145.344 281.505 147.416 281.907Z" fill="#FFA8A7"/>
<path d="M147.596 305.985C149.773 306.229 152.722 305.985 153.324 305.341C151.464 305.328 149.622 304.969 147.892 304.284L147.596 305.985Z" fill="#F28F8F"/>
<path d="M155.386 283.936L155.227 284.095C154.17 285.078 152.923 285.712 151.877 286.642C150.732 287.674 149.916 289.019 149.53 290.511C149.202 291.737 149.086 293.185 147.765 293.766C147.765 293.766 146.877 290.532 144.15 290.986C141.423 291.441 141.074 294.961 142.85 297.064C144.626 299.168 146.232 298.333 146.232 298.333C146.232 298.333 146.232 302.984 144.203 305.647C142.01 306.159 139.727 306.138 137.544 305.584C134.891 305.066 131.097 301.81 129.458 298.333C126.013 290.934 125.675 284.306 130.378 282.224C130.843 278.799 133.549 277.224 136.561 276.474C141.127 275.353 145.461 278.006 149.985 276.918C150.913 276.631 151.855 276.391 152.807 276.199C152.914 276.167 153.027 276.167 153.134 276.199C153.377 276.315 153.367 276.643 153.303 276.896C153.071 277.812 152.625 278.659 152.003 279.37C153.743 279.443 155.481 279.192 157.13 278.63C157.244 279.588 157.147 280.56 156.846 281.476C156.545 282.393 156.046 283.233 155.386 283.936Z" fill="#263238"/>
<path d="M131.054 283.936L128.021 282.139C128.135 281.939 128.288 281.763 128.47 281.621C128.653 281.48 128.862 281.375 129.084 281.315C129.307 281.254 129.54 281.237 129.769 281.266C129.998 281.295 130.219 281.369 130.42 281.484C130.62 281.598 130.796 281.751 130.938 281.934C131.079 282.116 131.184 282.325 131.244 282.548C131.305 282.771 131.322 283.003 131.293 283.232C131.264 283.462 131.19 283.683 131.075 283.883L131.054 283.936Z" fill="#263238"/>
<path d="M147.818 295.563L147.67 292.054C147.9 292.044 148.13 292.08 148.347 292.159C148.564 292.239 148.762 292.36 148.932 292.516C149.102 292.672 149.239 292.86 149.337 293.069C149.434 293.278 149.489 293.504 149.498 293.735C149.508 293.965 149.472 294.195 149.393 294.412C149.314 294.628 149.193 294.827 149.037 294.997C148.881 295.167 148.693 295.304 148.484 295.401C148.275 295.499 148.048 295.554 147.818 295.563Z" fill="#263238"/>
<path d="M156.453 290.944L147.046 292.308L147.437 292.963L156.463 291.652L156.453 290.944Z" fill="#263238"/>
<path d="M126.076 314.177C127.186 309.822 128.76 308.406 132.555 308.3C134.509 308.434 136.454 308.681 138.379 309.04C138.78 310.89 143.537 312.137 148.346 311.154C149.783 311.566 153.631 312.602 154.762 313.036C158.176 314.272 159.824 317.813 160.046 329.039C160.046 329.039 160.702 355.676 160.046 360.274C152.911 363.043 145.145 363.775 137.618 362.388C127.376 360.094 126.16 355.834 126.16 355.834C126.16 355.834 126.699 345.148 127.048 337.019C126.53 331.84 125.759 327.95 125.484 323.817C125.228 320.592 125.427 317.347 126.076 314.177Z" fill="#0A7DCD"/>
<g opacity="0.6">
<path opacity="0.6" d="M126.076 314.177C127.186 309.822 128.76 308.406 132.555 308.3C134.509 308.434 136.454 308.681 138.379 309.04C138.78 310.89 143.537 312.137 148.346 311.154C149.783 311.566 153.631 312.602 154.762 313.036C158.176 314.272 159.824 317.813 160.046 329.039C160.046 329.039 160.702 355.676 160.046 360.274C152.911 363.043 145.145 363.775 137.618 362.388C127.376 360.094 126.16 355.834 126.16 355.834C126.16 355.834 126.699 345.148 127.048 337.019C126.53 331.84 125.759 327.95 125.484 323.817C125.228 320.592 125.427 317.347 126.076 314.177Z" fill="#0A7DCD"/>
</g>
<path d="M137.311 306.292L137.237 307.349C137.237 307.349 137.734 308.797 140.63 309.336C145.503 310.235 147.204 308.723 147.204 308.723L147.331 307.846C147.331 307.846 147.796 307.656 148.589 308.269C149.794 309.512 150.92 310.828 151.961 312.211C151.961 312.211 151.031 311.936 147.986 313.268C144.946 314.454 141.595 314.581 138.474 313.628C137.605 313.339 136.827 312.826 136.218 312.142C135.61 311.457 135.192 310.624 135.007 309.727C134.891 308.765 136.476 305.922 137.311 306.292Z" fill="#0A7DCD"/>
<path opacity="0.25" d="M137.311 306.292L137.237 307.349C137.237 307.349 137.734 308.797 140.63 309.336C145.503 310.235 147.204 308.723 147.204 308.723L147.331 307.846C147.331 307.846 147.796 307.656 148.589 308.269C149.794 309.512 150.92 310.828 151.961 312.211C151.961 312.211 151.031 311.936 147.986 313.268C144.946 314.454 141.595 314.581 138.474 313.628C137.605 313.339 136.827 312.826 136.218 312.142C135.61 311.457 135.192 310.624 135.007 309.727C134.891 308.765 136.476 305.922 137.311 306.292Z" fill="#0A7DCD"/>
<path d="M154.382 312.814C158.715 313.353 162.14 314.262 164.032 318.395C167.202 325.392 170.701 331.142 173.227 333.848C175.922 336.734 186.968 341.808 189.462 341.406C191.956 341.004 194.43 338.14 195.719 338.88C197.009 339.62 194.662 342.399 194.778 343.023C194.895 343.647 199.45 343.319 201.585 341.808C203.72 340.296 204.513 343.414 201.744 346.649C198.975 349.883 193.795 350.137 188.162 349.006C182.528 347.875 171.06 345.19 166.737 341.607C161.453 337.284 160.565 333.732 158.335 329.863C150.217 321.576 154.382 312.814 154.382 312.814Z" fill="#FFA8A7"/>
<path d="M153.747 312.698C153.747 312.698 158.387 312.698 160.818 314.177C163.249 315.657 164.782 318.839 166.79 323.215C168.618 326.897 170.829 330.376 173.386 333.595C174.443 334.905 182.158 339.197 182.158 339.197C181.743 341.949 180.979 344.638 179.886 347.198C179.886 347.198 172.128 345.254 167.456 342.748C162.784 340.243 155.682 330.212 155.682 330.212C155.682 330.212 150.682 323.574 153.747 312.698Z" fill="#31A6E8"/>
<path opacity="0.15" d="M153.747 312.698C153.747 312.698 158.387 312.698 160.818 314.177C163.249 315.657 164.782 318.839 166.79 323.215C168.618 326.897 170.829 330.376 173.386 333.595C174.443 334.905 182.158 339.197 182.158 339.197C181.743 341.949 180.979 344.638 179.886 347.198C179.886 347.198 172.128 345.254 167.456 342.748C162.784 340.243 155.682 330.212 155.682 330.212C155.682 330.212 150.682 323.574 153.747 312.698Z" fill="#31A6E8"/>
<path d="M181.682 338.901C181.523 341.756 180.694 344.533 179.262 347.008C180.63 347.379 182.016 347.679 183.416 347.907C183.416 347.907 185.847 345.465 185.709 340.592L181.682 338.901Z" fill="#27DEBF"/>
<path opacity="0.3" d="M181.682 338.901C181.523 341.756 180.694 344.533 179.262 347.008C180.63 347.379 182.016 347.679 183.416 347.907C183.416 347.907 185.847 345.465 185.709 340.592L181.682 338.901Z" fill="black"/>
<path d="M184.039 341.142C184.039 341.272 183.989 341.396 183.898 341.489C183.807 341.582 183.683 341.636 183.553 341.638C183.455 341.641 183.358 341.613 183.274 341.56C183.191 341.507 183.126 341.43 183.087 341.339C183.048 341.249 183.036 341.148 183.054 341.051C183.072 340.954 183.119 340.865 183.188 340.794C183.257 340.724 183.345 340.675 183.442 340.655C183.538 340.635 183.639 340.645 183.73 340.682C183.822 340.719 183.9 340.783 183.955 340.865C184.01 340.947 184.039 341.043 184.039 341.142Z" fill="#455A64"/>
</g>
<defs>
<clipPath id="clip0">
<rect width="499" height="503" fill="white"/>
</clipPath>
</defs>
</svg>
