<svg version="1.2" baseProfile="tiny-ps" xmlns="http://www.w3.org/2000/svg" viewBox="0 0 512 512" width="512" height="512">
	<title>014-global-warming-svg</title>
	<style>
		tspan { white-space:pre }
		.shp0 { fill: #ffffff } 
	</style>
	<g id="Layer">
		<path id="Layer" fill-rule="evenodd" class="shp0" d="M238.93 405.57C242.15 406.61 244.77 408.66 246.57 411.24C249.38 414.19 251 418.25 250.69 422.64C250.13 430.54 243.54 436.57 235.74 436.57C235.38 436.57 235.02 436.56 234.66 436.54C188.71 433.27 146.03 412.88 114.47 379.13C82.76 345.22 65.29 300.96 65.29 254.5C65.29 153.87 147.16 72 247.79 72C256.07 72 262.79 78.71 262.79 87C262.79 95.29 256.07 102 247.79 102C231.64 102 214.94 116.86 201.99 142.77C200.45 145.86 198.98 149.06 197.58 152.36C206.47 153.34 215.66 154.06 225.08 154.51C233.36 154.9 239.75 161.93 239.35 170.2C238.97 178.23 232.34 184.49 224.38 184.49C224.14 184.49 223.9 184.48 223.66 184.47C211.36 183.89 199.37 182.86 187.84 181.41C183.21 199.31 180.33 218.96 179.39 239.5L224.37 239.5C232.65 239.5 239.37 246.21 239.37 254.5C239.37 262.79 232.65 269.5 224.37 269.5L179.38 269.5C180.35 290.55 183.31 309.84 187.69 326.9C192.28 326.32 196.94 325.8 201.68 325.36C209.93 324.59 217.24 330.65 218.01 338.9C218.78 347.14 212.72 354.46 204.47 355.23C202.08 355.45 199.71 355.7 197.35 355.97C208.71 383.03 223.95 400.72 238.93 405.57ZM166.89 360.6C158.8 362.19 151.14 364.01 144.02 366.04C155.25 376.52 168.06 385.33 182.06 392.07C177.86 385.22 173.96 377.68 170.45 369.5C169.21 366.61 168.04 363.63 166.89 360.6ZM149.37 269.5L96.03 269.5C98.65 295.91 108.1 320.48 122.61 341.34C133.29 337.61 145.18 334.39 158.03 331.75C153.27 312.27 150.3 291.17 149.37 269.5ZM158.15 176.55C145.39 173.93 133.55 170.75 122.92 167.06C108.23 187.98 98.65 212.73 96.03 239.5L149.36 239.5C150.3 217.44 153.29 196.16 158.15 176.55ZM182.03 116.93C168.25 123.54 155.61 132.16 144.5 142.42C151.57 144.43 159.13 146.22 167.1 147.77C169.55 141.34 172.24 135.18 175.15 129.35C177.34 124.97 179.64 120.83 182.03 116.93Z" />
		<path id="Layer" class="shp0" d="M330.83 179.88C322.55 179.88 315.83 186.6 315.83 194.88L315.83 326.93C307.79 331.94 302.44 340.86 302.44 351.02C302.44 366.7 315.15 379.41 330.83 379.41C346.51 379.41 359.22 366.7 359.22 351.02C359.22 340.86 353.87 331.94 345.83 326.93L345.83 194.88C345.83 186.6 339.11 179.88 330.83 179.88L330.83 179.88Z" />
		<path id="Layer" class="shp0" d="M416 209.88C424.29 209.88 431 203.16 431 194.88C431 186.6 424.29 179.88 416 179.88L395.51 179.88L395.51 159.49L416 159.49C424.29 159.49 431 152.77 431 144.49C431 136.2 424.29 129.49 416 129.49L395.1 129.49C391.51 97.2 364.06 72 330.83 72C295.16 72 266.15 101.02 266.15 136.68L266.15 294.39C252.37 310.06 244.86 329.94 244.86 351.02C244.86 398.43 283.43 437 330.83 437C378.24 437 416.81 398.43 416.81 351.02C416.81 333.02 411.29 315.77 400.86 301.15C396.05 294.4 386.68 292.84 379.94 297.65C373.2 302.46 371.63 311.83 376.44 318.57C383.22 328.08 386.81 339.3 386.81 351.02C386.81 381.89 361.7 407 330.83 407C299.97 407 274.86 381.89 274.86 351.02C274.86 335.87 280.82 321.68 291.65 311.06C294.53 308.23 296.15 304.37 296.15 300.35L296.15 136.68C296.15 117.56 311.71 102 330.83 102C349.95 102 365.52 117.56 365.52 136.68L365.52 244.56C365.52 252.85 372.23 259.56 380.52 259.56L416 259.56C424.29 259.56 431 252.85 431 244.56C431 236.28 424.29 229.56 416 229.56L395.51 229.56L395.51 209.88L416 209.88Z" />
	</g>
</svg>